<svg width="14" height="8" viewBox="0 0 14 8" fill="none" xmlns="http://www.w3.org/2000/svg">
<path id="Vector" d="M3.86397 0.660891C3.96553 0.764292 4.02258 0.904517 4.02258 1.05073C4.02258 1.19694 3.96553 1.33716 3.86397 1.44056L1.89701 3.44434L12.9583 3.44434C13.102 3.44434 13.2397 3.50243 13.3413 3.60584C13.4429 3.70924 13.5 3.84949 13.5 3.99573V3.99573C13.5 4.14197 13.4429 4.28222 13.3413 4.38563C13.2397 4.48904 13.102 4.54713 12.9583 4.54713L1.90297 4.54713L3.86397 6.54263C3.91774 6.59293 3.96096 6.65378 3.99104 6.72152C4.02111 6.78925 4.03742 6.86248 4.03899 6.93679C4.04055 7.01111 4.02734 7.08498 4.00014 7.15396C3.97294 7.22295 3.93232 7.28562 3.88072 7.33822C3.82912 7.39082 3.7676 7.43226 3.69986 7.46004C3.63213 7.48782 3.55958 7.50138 3.48656 7.49989C3.41355 7.4984 3.34159 7.4819 3.275 7.45139C3.20841 7.42087 3.14857 7.37696 3.09907 7.32231L0.976092 5.16138C0.825154 5.00778 0.705423 4.82541 0.623734 4.62469C0.542046 4.42398 0.5 4.20885 0.5 3.9916C0.5 3.77434 0.542046 3.55922 0.623734 3.3585C0.705423 3.15779 0.825155 2.97542 0.976093 2.82181L3.09907 0.660891C3.20061 0.557857 3.33815 0.5 3.48152 0.5C3.6249 0.5 3.76243 0.557857 3.86397 0.660891Z" fill="white"/>
</svg>
