<svg width="15" height="8" viewBox="0 0 15 8" fill="none" xmlns="http://www.w3.org/2000/svg">
<path id="Vector" d="M11.586 7.82586L14.4528 5.20988C14.8033 4.88845 15 4.45345 15 4C15 3.54655 14.8033 3.11155 14.4528 2.79012L11.586 0.174145C11.5284 0.119663 11.4594 0.0762066 11.3832 0.046311C11.3069 0.0164155 11.2249 0.000679541 11.1419 2.1369e-05C11.0589 -0.000636803 10.9766 0.0137959 10.8998 0.0424774C10.823 0.071159 10.7532 0.113515 10.6945 0.167074C10.6359 0.220633 10.5895 0.284322 10.558 0.354426C10.5266 0.424529 10.5108 0.499643 10.5115 0.575384C10.5122 0.651125 10.5295 0.725976 10.5622 0.79557C10.595 0.865165 10.6426 0.928108 10.7023 0.980728L13.3847 3.42957L0.624988 3.42957C0.459231 3.42957 0.300262 3.48967 0.183055 3.59665C0.0658463 3.70362 7.85442e-07 3.84871 7.78829e-07 4C7.72216e-07 4.15129 0.0658463 4.29638 0.183055 4.40335C0.300262 4.51033 0.459231 4.57043 0.624988 4.57043L13.3854 4.57043L10.7023 7.01927C10.6426 7.07189 10.595 7.13484 10.5622 7.20443C10.5295 7.27402 10.5122 7.34888 10.5115 7.42462C10.5108 7.50036 10.5266 7.57547 10.558 7.64557C10.5895 7.71568 10.6359 7.77937 10.6945 7.83293C10.7532 7.88648 10.823 7.92884 10.8998 7.95752C10.9766 7.9862 11.0589 8.00064 11.1419 7.99998C11.2249 7.99932 11.3069 7.98358 11.3832 7.95369C11.4594 7.92379 11.5284 7.88034 11.586 7.82586Z" fill="black"/>
</svg>
