<svg width="45" height="46" viewBox="0 0 45 46" fill="none" xmlns="http://www.w3.org/2000/svg">
<g style="mix-blend-mode:multiply">
<path d="M31.0364 45.3222L1.0422 28.0417C-0.492913 27.1571 -0.299536 25.6134 1.4706 24.5951L7.91747 20.8814C9.68761 19.8602 12.3681 19.7503 13.9002 20.635L43.8944 37.9154C45.4295 38.8001 45.2361 40.3408 43.466 41.362L37.0191 45.0758C35.249 46.097 32.5685 46.2068 31.0364 45.3222Z" fill="#EAEAEA"/>
</g>
<path d="M44.4686 28.217H44.4537L44.1145 28.1368C44.0818 28.1309 44.0402 28.1546 43.9955 28.214L43.6713 28.6355C43.5582 28.784 43.463 29.0986 43.463 29.3361V31.4231C43.463 31.6606 43.5552 31.7348 43.6713 31.5864L43.9955 31.1648C44.1086 31.0164 44.2038 30.7017 44.2038 30.4642V29.3747L44.4715 28.2199L44.4686 28.217Z" fill="#2E2E3B"/>
<path d="M44.3645 31.242L44.0402 31.6635C43.9271 31.812 43.8349 31.7407 43.8349 31.5003V29.4133C43.8349 29.1758 43.9271 28.8612 44.0402 28.7127L44.3645 28.2912C44.4775 28.1427 44.543 28.217 44.5697 28.4544C44.7363 29.8942 44.5697 30.5414 44.5697 30.5414C44.5132 30.8205 44.4775 31.0936 44.3645 31.242Z" fill="url(#paint0_linear_856_9287)"/>
<path d="M26.2943 38.2568L2.58929 24.6011V23.5086L26.2943 37.1643V38.2568Z" fill="#1B1B1B"/>
<path d="M5.69818 25.8271L6.18608 26.1091L5.24598 26.6019L4.76105 26.3228L5.69818 25.8271Z" fill="#602929"/>
<path d="M7.61409 26.7593L5.48993 28.1753V25.4531L7.61409 24.037V26.7593Z" fill="#1A1A1A"/>
<path d="M5.24597 28.0328L5.48992 28.1753V25.453L5.24597 25.3105V28.0328Z" fill="#292929"/>
<path d="M7.52783 26.6256L6.20097 27.7983L6.07007 28.959L7.09943 28.3653L7.23033 27.2045L8.55719 26.0319L7.52783 26.6256Z" fill="#292929"/>
<path d="M25.961 39.4116L27.4188 38.4141L31.5094 41.077L30.8609 37.1465L26.4787 36.06L25.961 39.4116Z" fill="#222222"/>
<path d="M32.2265 42.0002C32.2265 40.6881 31.2983 39.088 30.1499 38.426C29.5787 38.0965 29.0611 38.0638 28.6862 38.2746C28.6862 38.2746 28.6803 38.2776 28.6773 38.2805L27.3653 39.0375V40.0499L30.3106 44.0842L31.5392 43.3718C31.5988 43.345 31.6523 43.3124 31.7029 43.2768C32.0272 43.0452 32.2235 42.6059 32.2235 42.0032L32.2265 42.0002Z" fill="url(#paint1_linear_856_9287)"/>
<path d="M26.7911 40.3467C26.7911 41.6588 27.7193 43.2589 28.8677 43.9209C30.0131 44.5829 30.9443 44.0515 30.9443 42.7394C30.9443 41.4273 30.0161 39.8272 28.8677 39.1652C27.7223 38.5061 26.7911 39.0345 26.7911 40.3467Z" fill="url(#paint2_linear_856_9287)"/>
<path d="M30.8281 42.7039C30.8281 43.9656 29.9326 44.4762 28.8319 43.8409C27.7281 43.2056 26.8356 41.6678 26.8356 40.4032C26.8356 39.1386 27.7311 38.6309 28.8319 39.2662C29.9356 39.9015 30.8281 41.4392 30.8281 42.7039Z" fill="url(#paint3_linear_856_9287)"/>
<path d="M27.6627 40.8484C27.6627 41.6114 28.2012 42.5376 28.8676 42.9205C29.534 43.3035 30.0725 42.9977 30.0725 42.2348C30.0725 41.4719 29.534 40.5456 28.8676 40.1627C28.2012 39.7797 27.6627 40.0855 27.6627 40.8484Z" fill="#CBCAE8"/>
<path d="M27.8353 40.9493C27.8353 41.6024 28.2964 42.398 28.8676 42.7246C29.4358 43.0541 29.8999 42.7899 29.8999 42.1368C29.8999 41.4837 29.4388 40.6881 28.8676 40.3616C28.2994 40.032 27.8353 40.2962 27.8353 40.9493Z" fill="#93949C"/>
<path d="M28.2458 41.5016C28.3142 41.7094 28.3767 41.8192 28.5195 41.9884C28.5701 42.0478 28.6028 42.1309 28.5879 42.1814C28.5731 42.2319 28.4987 42.217 28.4303 42.1369C28.2815 41.9676 28.1328 41.7034 28.0673 41.4927C28.0346 41.3947 28.0614 41.3264 28.1149 41.3413C28.1685 41.3561 28.222 41.4274 28.2488 41.5016H28.2458Z" fill="#504F58"/>
<path d="M29.4895 41.4807C29.421 41.2729 29.3586 41.1631 29.2158 40.9939C29.1652 40.9345 29.1325 40.8514 29.1473 40.8009C29.1622 40.7504 29.2366 40.7653 29.305 40.8454C29.4538 41.0147 29.6025 41.2789 29.671 41.4896C29.7037 41.5876 29.6769 41.6559 29.6234 41.641C29.5698 41.6262 29.5162 41.5549 29.4895 41.4807Z" fill="#504F58"/>
<path d="M29.1889 42.3891C29.3377 42.3951 29.4001 42.3624 29.4745 42.2407C29.5013 42.1962 29.5578 42.1932 29.6114 42.2407C29.6649 42.2882 29.6887 42.3891 29.653 42.4455C29.5816 42.5762 29.4269 42.6563 29.2722 42.6444C29.2038 42.6444 29.1294 42.5672 29.1145 42.499C29.0997 42.4307 29.1354 42.3862 29.1889 42.3891Z" fill="#504F58"/>
<path d="M29.3615 42.6177C29.2931 42.6177 29.2187 42.5405 29.2039 42.4722C29.1979 42.4366 29.2039 42.4099 29.2158 42.3891C29.2068 42.3891 29.1979 42.3891 29.189 42.3891C29.1354 42.3891 29.1027 42.4307 29.1146 42.4989C29.1295 42.5672 29.2009 42.6414 29.2723 42.6444C29.3378 42.6503 29.4032 42.6355 29.4627 42.6117C29.43 42.6177 29.3943 42.6207 29.3615 42.6177Z" fill="#9C9AAB"/>
<path d="M29.5668 42.2111C29.5311 42.1962 29.4954 42.2111 29.4775 42.2408C29.4418 42.3001 29.4091 42.3358 29.3674 42.3595C29.4567 42.3476 29.5073 42.309 29.5668 42.2141V42.2111Z" fill="#9C9AAB"/>
<path d="M28.5434 40.5931C28.3946 40.5872 28.3322 40.6199 28.2578 40.7416C28.231 40.7861 28.1745 40.7891 28.1209 40.7416C28.0674 40.6941 28.0436 40.5931 28.0793 40.5367C28.1507 40.4061 28.3054 40.326 28.4601 40.3378C28.5285 40.3378 28.6029 40.415 28.6178 40.4833C28.6326 40.5516 28.5969 40.5961 28.5434 40.5931Z" fill="#504F58"/>
<path d="M28.4779 42.0715C28.3291 41.9023 28.1804 41.6381 28.1119 41.4273C28.1 41.3946 28.1 41.3679 28.1 41.3442C28.0554 41.3442 28.0316 41.4035 28.0614 41.4956C28.1268 41.7063 28.2756 41.9706 28.4273 42.1398C28.4957 42.2199 28.5701 42.2348 28.585 42.1843C28.5879 42.1724 28.582 42.1576 28.582 42.1457C28.5522 42.1398 28.5136 42.119 28.4779 42.0745V42.0715Z" fill="#93949C"/>
<path d="M29.6709 41.5727C29.6174 41.5579 29.5638 41.4867 29.5371 41.4124C29.4686 41.2046 29.4062 41.0948 29.2634 40.9256C29.2217 40.8781 29.2009 40.8187 29.1979 40.7712C29.1711 40.7682 29.1533 40.7742 29.1444 40.7979C29.1295 40.8484 29.1622 40.9315 29.2128 40.9909C29.3586 41.1601 29.4181 41.267 29.4865 41.4778C29.5103 41.552 29.5668 41.6232 29.6204 41.6381C29.6561 41.647 29.6769 41.6173 29.6799 41.5698C29.6769 41.5698 29.6739 41.5698 29.6709 41.5698V41.5727Z" fill="#93949C"/>
<path d="M28.1715 40.6762C28.121 40.6287 28.0972 40.5337 28.1299 40.4744C28.112 40.4951 28.0942 40.513 28.0823 40.5367C28.0466 40.5931 28.0704 40.694 28.1239 40.7415C28.1775 40.789 28.234 40.7861 28.2608 40.7415C28.2757 40.7178 28.2905 40.697 28.3054 40.6792C28.2786 40.7178 28.2251 40.7208 28.1745 40.6733L28.1715 40.6762Z" fill="#93949C"/>
<path d="M28.5939 40.5248C28.4511 40.5189 28.3887 40.5515 28.3173 40.6643C28.3738 40.6049 28.4363 40.5871 28.5434 40.5931C28.585 40.5931 28.6088 40.5634 28.6118 40.5189C28.6058 40.5189 28.5999 40.5278 28.5939 40.5278V40.5248Z" fill="#93949C"/>
<path d="M28.9241 42.6444C28.3767 42.3298 27.9334 41.5638 27.9334 40.9375C27.9334 40.4387 28.2131 40.1805 28.6028 40.2487C28.1625 40.13 27.8353 40.4001 27.8353 40.9464C27.8353 41.5995 28.2964 42.3921 28.8676 42.7216C29.3496 43.0007 29.7542 42.8522 29.8672 42.404C29.7363 42.784 29.3644 42.8968 28.9241 42.6415V42.6444Z" fill="#9C9AAB"/>
<path d="M28.2012 41.1601C28.2012 41.5817 28.4987 42.0953 28.8676 42.309C29.2365 42.5227 29.534 42.3506 29.534 41.929C29.534 41.5075 29.2365 40.9939 28.8676 40.7802C28.4987 40.5664 28.2012 40.7386 28.2012 41.1601Z" fill="#CBCAE8"/>
<path d="M28.3143 41.2254C28.3143 41.5757 28.5612 42.0032 28.8676 42.1783C29.1741 42.3535 29.421 42.214 29.421 41.8637C29.421 41.5134 29.1741 41.0859 28.8676 40.9107C28.5612 40.7356 28.3143 40.8751 28.3143 41.2254Z" fill="#93949C"/>
<path d="M28.942 42.0893C28.6564 41.9231 28.4243 41.5253 28.4243 41.1987C28.4243 40.988 28.5225 40.8573 28.6653 40.8366C28.46 40.8099 28.3143 40.9553 28.3143 41.2225C28.3143 41.5728 28.5612 42.0003 28.8676 42.1754C29.1086 42.315 29.3169 42.2556 29.3912 42.0507C29.302 42.1754 29.1354 42.1992 28.942 42.0893Z" fill="#9C9AAB"/>
<path d="M41.4877 35.3624V35.5553L44.4716 37.1584V36.9654L41.4877 35.3624Z" fill="#292929"/>
<path d="M44.4716 38.2746L41.4877 36.6716V36.9477L41.9607 37.7789L43.826 38.7377L44.4716 38.4142V38.2746Z" fill="#292929"/>
<path d="M41.4877 35.5554V36.6716L44.4716 38.2746V37.1584L41.4877 35.5554Z" fill="#222222"/>
<path d="M32.0599 41.2224V42.3386L34.9427 44.0011V42.8849L32.0599 41.2224Z" fill="#222222"/>
<path d="M31.4321 41.1571V41.3471L34.3149 43.0095V42.8195L31.4321 41.1571Z" fill="#292929"/>
<path d="M44.1443 39.2484L44.9982 38.334L44.067 39.2484L36.2159 43.7726L33.3777 43.7488L33.5027 44.1526L34.3 44.5296C34.3 44.5296 35.7072 44.1496 36.082 44.0012C38.0783 43.2056 41.4787 41.1157 43.353 39.8985C43.469 39.8243 44.1443 39.2514 44.1443 39.2514V39.2484Z" fill="#B9B3C0"/>
<path d="M44.9238 38.5359C44.9238 38.5359 44.4389 38.9812 44.2931 39.0969C43.3381 39.8628 38.6792 42.7602 36.0136 43.8675C35.8053 43.9536 34.9902 44.2267 34.9902 44.2267C34.6183 44.3633 34.3119 44.2802 33.9995 44.1021L33.3748 43.7518V42.6296L43.3976 38.5804L44.3526 37.7195L44.7959 37.859C45.1082 38.0401 44.9773 38.4795 44.9238 38.5329V38.5359Z" fill="#404B4D"/>
<path d="M44.9982 37.1109V38.3369C44.9982 38.3369 44.2902 39.0524 44.067 39.2513C42.8949 40.2844 38.2479 42.8374 36.216 43.7755C35.8738 43.9328 34.7969 44.2802 34.7969 44.2802V43.0541L36.216 42.5494L44.067 38.0252L44.9982 37.1109Z" fill="#404B4D"/>
<path d="M44.9238 37.4137C44.9238 37.4137 44.4389 37.859 44.2931 37.9748C43.3381 38.7407 38.6792 41.6381 36.0136 42.7454C35.8053 42.8315 35.1687 43.0541 35.1687 43.0541C34.7968 43.1907 34.3119 43.158 33.9995 42.9799L33.3748 42.6296L33.6366 42.4396L35.1181 42.2318L43.4036 37.5117L44.4359 36.532L44.7988 36.7398C45.1112 36.9209 44.9803 37.3603 44.9268 37.4137H44.9238Z" fill="#535C5E"/>
<path d="M34.6659 43.0452C34.4339 43.0452 34.2078 42.9917 34.0471 42.8997L33.5503 42.6207L33.6752 42.5316L35.1509 42.3238L43.4601 37.5888L44.4478 36.6478L44.7483 36.8229C44.8256 36.8674 44.8702 36.9328 44.8911 37.0248C44.9238 37.1673 44.8762 37.3187 44.8524 37.3513C44.7989 37.4018 44.3645 37.7996 44.2336 37.9035C43.2935 38.6575 38.6108 41.5638 35.9779 42.6593C35.7756 42.7424 35.1449 42.965 35.139 42.965C34.9962 43.0155 34.8325 43.0452 34.6659 43.0452Z" fill="#535C5E"/>
<path d="M12.4336 30.568C12.4336 29.2559 11.5054 27.6558 10.3571 26.9938C9.78586 26.6642 9.26821 26.6316 8.89336 26.8424C8.89336 26.8424 8.88741 26.8453 8.88443 26.8483L7.57245 27.6053V28.6176L10.5177 32.652L11.7464 31.9395C11.8059 31.9128 11.8595 31.8801 11.91 31.8445C12.2343 31.613 12.4307 31.1736 12.4307 30.571L12.4336 30.568Z" fill="url(#paint4_linear_856_9287)"/>
<path d="M6.99823 28.9145C6.99823 30.2267 7.92644 31.8268 9.07479 32.4888C10.2202 33.1478 11.1514 32.6194 11.1514 31.3073C11.1514 29.9951 10.2232 28.395 9.07479 27.733C7.92941 27.074 6.99823 27.6024 6.99823 28.9145Z" fill="url(#paint5_linear_856_9287)"/>
<path d="M11.0354 31.2716C11.0354 32.5333 10.1399 33.0439 9.03915 32.4086C7.93541 31.7733 7.04291 30.2356 7.04291 28.9709C7.04291 27.7063 7.93839 27.1987 9.03915 27.834C10.1429 28.4692 11.0354 30.007 11.0354 31.2716Z" fill="url(#paint6_linear_856_9287)"/>
<path d="M10.2797 30.8055C10.2797 31.5685 9.74122 31.8743 9.07482 31.4913C8.40841 31.1083 7.86993 30.1792 7.86993 29.4192C7.86993 28.6592 8.40841 28.3505 9.07482 28.7334C9.74122 29.1164 10.2797 30.0456 10.2797 30.8055Z" fill="#CBCAE8"/>
<path d="M10.1578 30.7342C10.1578 31.42 9.67283 31.6961 9.07485 31.3517C8.47687 31.0074 7.99194 30.1732 7.99194 29.4874C7.99194 28.8017 8.47687 28.5256 9.07485 28.8699C9.1284 28.9026 9.18493 28.9382 9.2355 28.9768C9.70258 29.3241 10.0715 29.9594 10.1459 30.5354C10.1548 30.6036 10.1578 30.6689 10.1578 30.7342Z" fill="#CBCAE8"/>
<path d="M9.46755 31.0727C8.9023 30.7462 8.44117 29.9565 8.44117 29.3064C8.44117 29.0451 8.51555 28.8462 8.64347 28.7216C8.2597 28.6919 7.99194 28.9739 7.99194 29.4845C7.99194 30.1702 8.47687 31.0044 9.07485 31.3488C9.51218 31.6011 9.88703 31.521 10.0596 31.1944C9.89298 31.233 9.68771 31.1944 9.46755 31.0697V31.0727Z" fill="#93949C"/>
<g style="mix-blend-mode:multiply">
<path d="M10.0954 30.6125C10.0954 31.0341 9.79785 31.2033 9.43192 30.9896C9.066 30.7788 8.76849 30.2652 8.76849 29.8466C8.76849 29.4281 9.066 29.2559 9.43192 29.4696C9.79785 29.6804 10.0954 30.194 10.0954 30.6125Z" fill="#91929A"/>
</g>
<path d="M10.1459 30.5353C10.0328 30.7016 9.81563 30.7313 9.5687 30.5888C9.20278 30.378 8.90527 29.8644 8.90527 29.4459C8.90527 29.1638 9.03915 28.9946 9.23848 28.9768C9.70555 29.3241 10.0745 29.9594 10.1488 30.5353H10.1459Z" fill="#93949C"/>
<path d="M9.07477 29.0333L8.57794 29.3212L9.5597 30.9094L10.0506 30.6274L9.7144 29.8289L9.07477 29.0333Z" fill="#93949C"/>
<path d="M9.74123 30.4938C9.74123 30.9153 9.44372 31.0845 9.0778 30.8708C8.71187 30.66 8.41437 30.1464 8.41437 29.7279C8.41437 29.3093 8.71187 29.1371 9.0778 29.3508C9.44372 29.5616 9.74123 30.0752 9.74123 30.4938Z" fill="#93949C"/>
<path d="M9.67584 30.4819C9.67584 30.8827 9.39023 31.046 9.03918 30.8441C8.68813 30.6422 8.40253 30.1524 8.40253 29.7516C8.40253 29.3509 8.68813 29.1876 9.03918 29.3895C9.39023 29.5913 9.67584 30.0812 9.67584 30.4819Z" fill="#CBCAE8"/>
<path d="M36.2368 13.6646V29.434L35.9274 29.6121L24.7502 36.0511L24.2028 36.3658V20.5964L36.2368 13.6646Z" fill="#CFD3D6"/>
<path d="M35.4068 21.2999L35.7043 26.7919V30.2177L39.908 33.0617L41.2795 35.2377L44.1474 36.7725V34.5994L44.3854 34.8428L44.2843 33.1062L44.3854 32.741L44.317 32.4026L44.1236 31.607C44.1236 31.607 43.8202 30.3157 43.4661 29.0867C43.1091 27.8547 41.8715 24.9662 41.8715 24.9662L41.6395 24.6782L35.5585 21.1752L35.4098 21.2999H35.4068Z" fill="#98AC9F"/>
<path d="M35.7042 26.7919V30.2207L39.905 33.0647L41.2764 35.2407L44.1444 36.7755V34.6054L44.3824 34.8458L44.2812 33.1092L41.8774 31.6189L38.1021 28.1753L35.7042 26.7919Z" fill="#7B9685"/>
<path d="M44.0225 36.63L41.5294 35.3089V35.2911C41.5294 35.2911 41.452 34.9764 41.0058 34.0888C40.4941 33.0676 39.4796 32.1443 39.4707 32.1354L36.5314 30.4314C36.338 30.3186 36.1892 30.0604 36.1892 29.8377L35.8917 22.1044C35.8917 22.0035 35.9274 21.9263 35.9929 21.8877C36.0583 21.8491 36.1446 21.855 36.2338 21.9085L41.4461 24.9127C41.571 24.984 41.6871 25.1235 41.7525 25.2809C41.8507 25.5124 42.0232 25.9488 42.3059 26.7088C42.7997 28.0358 43.8321 31.1647 43.8618 31.3309C43.8886 31.4823 43.957 32.3165 43.96 32.3522L44.0254 36.6359L44.0225 36.63ZM41.6038 35.2555L43.9392 36.4845L43.8737 32.3522C43.8707 32.3076 43.8023 31.4853 43.7785 31.3428C43.7517 31.1914 42.7134 28.0417 42.2285 26.7355C41.9489 25.9785 41.7733 25.5421 41.6752 25.3135C41.6157 25.174 41.5145 25.0493 41.4044 24.987L36.1922 21.9827C36.1297 21.9471 36.0762 21.9411 36.0375 21.9619C35.9988 21.9827 35.978 22.0332 35.978 22.1044L36.2755 29.8377C36.2755 30.0307 36.4094 30.2622 36.576 30.3572L39.5213 32.0672C39.5391 32.082 40.5625 33.0171 41.0831 34.0502C41.4788 34.8399 41.5829 35.1753 41.6038 35.2555Z" fill="#6F8B79"/>
<path d="M36.8615 34.537C36.8615 35.8432 37.7867 37.4315 38.9262 38.0905C40.0656 38.7466 40.9908 38.2211 40.9908 36.9149C40.9908 35.6087 40.0656 34.0205 38.9262 33.3615C37.7867 32.7054 36.8615 33.2308 36.8615 34.537Z" fill="#222222"/>
<path d="M36.6146 28.1456L37.1114 28.4336C37.1531 28.4573 37.1888 28.5226 37.1888 28.579V29.7932C37.1888 29.8496 37.156 29.8763 37.1114 29.8496L36.6146 29.5617C36.5729 29.5379 36.5372 29.4726 36.5372 29.4162V28.202C36.5372 28.1456 36.57 28.1189 36.6146 28.1456Z" fill="#0C100F"/>
<path d="M36.6266 28.9353L37.0996 29.2084V29.6804C37.0996 29.7071 37.0847 29.719 37.0639 29.7071L36.6593 29.4756C36.6385 29.4637 36.6236 29.434 36.6236 29.4073V28.9353H36.6266Z" fill="#222222"/>
<path d="M12.5199 0L36.2367 13.6646L24.2028 20.5964L0.485901 6.93177L12.5199 0Z" fill="#EAEAEA"/>
<path d="M24.2028 20.2372L0.798278 6.75366L0.485901 6.93178L24.2028 20.5964L36.2367 13.6647L35.9273 13.4836L24.2028 20.2372Z" fill="#F2EFEC"/>
<path d="M35.5853 32.9726L36.3617 33.4209L36.7574 32.5778L37.4298 31.9841L39.6432 33.2606C39.6432 33.2606 40.5268 33.8306 41.1991 35.5138C41.3836 35.968 41.5948 37.01 41.5948 37.01L41.7525 36.9803C41.7525 36.9803 41.7912 36.4756 41.5294 35.493C41.2646 34.5104 40.2769 33.127 39.5658 32.5362C38.8548 31.9455 35.7043 30.2207 35.7043 30.2207L35.5853 31.8386V32.9726Z" fill="#292929"/>
<path d="M44.4568 36.4459L42.2285 38.3992L36.4242 41.7419L33.9847 42.6295V40.3199L44.4716 35.1901L44.4568 36.4459Z" fill="#CFD3D6"/>
<path d="M44.4597 36.3718V36.5707L43.7725 37.2624L42.9335 37.963L42.2285 38.3993L43.2281 36.725L44.4597 36.3718Z" fill="#CFD3D6"/>
<path d="M25.9433 26.7532L25.6458 32.5896V36.0154L29.8495 38.8594L31.2209 41.0354L33.9877 42.6295V40.4565L34.4072 40.593V38.4912L34.1573 38.2567L34.0651 37.4047C34.0651 37.4047 33.6991 36.1312 33.4076 34.8843C33.116 33.6316 32.4229 30.4165 32.408 30.4225L32.1759 30.1345L26.095 26.6315L25.9462 26.7562L25.9433 26.7532Z" fill="#B30205"/>
<path opacity="0.5" d="M25.6458 32.5867V36.0125L29.8495 38.8565L31.218 41.0355L33.9847 42.6296L34.315 42.4367L34.4042 41.9736V38.8001L31.8189 37.4137L28.0436 33.9701L25.6458 32.5867Z" fill="#AFB4B8"/>
<path d="M33.8806 42.5227L33.9579 42.2139V40.5693V38.5684L33.9312 38.2419L32.2919 30.5917L32.0063 30.2206L25.976 26.7236L26.089 26.6256L32.1759 30.1316L32.402 30.4195L34.1275 37.8886L34.309 38.1855L34.1573 38.2567L34.4042 38.4913V42.3891L34.071 42.5791H33.9847L33.8806 42.5227Z" fill="#BEC3C7"/>
<path d="M33.9847 42.6296L31.2179 41.0355V40.985L33.9847 42.5791V42.6296Z" fill="#292929"/>
<path d="M27.9305 28.386L31.7474 30.5857C31.9021 30.6748 32.0092 30.8262 32.0449 30.9984C32.1669 31.5921 32.4644 33.0497 32.7322 34.2401C33.0713 35.7452 33.1427 36.4191 33.1427 36.4191V37.5383C33.1427 37.6481 33.0654 37.6897 32.9702 37.6363L32.0687 37.1168C31.8962 37.0188 29.3585 33.9106 29.0164 33.7147L27.627 32.9161C27.5318 32.8627 27.4545 32.7291 27.4545 32.6222L27.752 28.4839C27.752 28.3771 27.8293 28.3325 27.9245 28.386H27.9305Z" fill="#1E1E1E"/>
<path d="M32.1402 37.007C32.0659 36.9506 31.5571 36.3569 31.0663 35.784C30.0369 34.5817 29.2931 33.7208 29.0879 33.605L27.6985 32.8064C27.642 32.7738 27.5914 32.6847 27.5914 32.6224L27.886 28.5108L31.6851 30.6987C31.807 30.7699 31.8933 30.8887 31.9201 31.0252C32.0391 31.6041 32.3396 33.0766 32.6103 34.27C32.9256 35.6712 33.0089 36.3539 33.0179 36.4282V37.5177L32.1373 37.01L32.1402 37.007Z" fill="#1E2329"/>
<path d="M27.4158 34.8102L27.9127 35.0982C27.9543 35.1219 27.99 35.1872 27.99 35.2437V36.4578C27.99 36.5142 27.9573 36.5409 27.9127 36.5142L27.4158 36.2263C27.3742 36.2025 27.3385 36.1372 27.3385 36.0808V34.8666C27.3385 34.8102 27.3712 34.7835 27.4158 34.8102Z" fill="#3C4749"/>
<path d="M27.4278 35.5999L27.9008 35.873V36.345C27.9008 36.3718 27.8859 36.3836 27.8651 36.3718L27.4605 36.1402C27.4397 36.1283 27.4248 36.0986 27.4248 36.0719V35.5999H27.4278Z" fill="#222222"/>
<path d="M11.8267 32.1711L11.6988 30.9985L10.6724 28.3504L10.8331 28.2881L11.8654 30.9688L11.9963 32.1533L11.8267 32.1711Z" fill="#292929"/>
<path d="M11.9963 32.1533L11.8654 30.9807L10.842 28.3327L12.0886 27.5638L13.1209 30.2474L13.2518 31.429L11.9963 32.1533Z" fill="#1D1D1D"/>
<path d="M0.485901 6.9317L24.2028 20.5963V36.3658L0.485901 22.7041V6.9317Z" fill="#BEC3C7"/>
<path d="M23.6793 20.911V35.4454L1.01257 22.3894V7.85492L1.3666 8.05679L1.6165 8.19928L23.6793 20.911Z" fill="#A5ABAF"/>
<path d="M23.6763 23.8559V35.4455L1.01257 22.3894L1.76823 21.956L8.04255 18.3402L14.7899 17.598L23.6763 23.8559Z" fill="#A5ABAF"/>
<path d="M23.6792 20.9111L23.6763 35.0804L1.33087 22.2054V8.03607L23.6792 20.9111Z" fill="#BEC3C7"/>
<path d="M4.76105 27.7537L5.24598 28.0328V26.6019L4.76105 26.3228V27.7537Z" fill="#862929"/>
<path d="M25.5267 38.7673L26.0444 38.9039L26.44 38.0608L27.3712 37.7788L29.5846 39.0553C29.5846 39.0553 30.4682 39.6253 31.1406 41.3085C31.325 41.7627 31.441 42.9175 31.441 42.9175L31.6939 42.772C31.6939 42.772 31.7326 42.2674 31.4708 41.2848C31.206 40.3021 30.2183 38.9187 29.5073 38.328C28.7962 37.7372 25.6457 36.0125 25.6457 36.0125L25.3928 36.1579L25.5267 38.7644V38.7673Z" fill="#535C5E"/>
<path d="M25.1846 38.9634L25.9611 39.4116L26.3567 38.5686L27.1183 37.9214L29.3318 39.1979C29.3318 39.1979 30.2153 39.7679 30.8877 41.4511C31.0721 41.9053 31.2834 42.9473 31.2834 42.9473L31.441 42.9176C31.441 42.9176 31.4797 42.4129 31.2179 41.4303C30.9531 40.4477 29.9654 39.0643 29.2544 38.4736C28.5434 37.8828 25.3928 36.158 25.3928 36.158L25.1846 37.8294V38.9634Z" fill="#3C4749"/>
<path d="M41.6364 24.6782L41.5145 24.7495L32.7144 29.8229L32.1759 30.1316L26.089 26.6257L26.5293 26.1655L26.6661 26.0201L34.7761 21.3504L35.5555 21.1782L41.4341 24.5625L41.6364 24.6782Z" fill="#B30205"/>
<path d="M44.4716 35.1902L42.3951 36.7754L41.6305 37.0486L37.4327 39.468L35.4841 40.3705L34.4042 40.7594V38.5685L44.4716 32.9014V33.973V35.1902Z" fill="#CFD3D6"/>
<path d="M44.4568 34.4807L43.4007 35.3712L36.4867 39.4977L34.782 40.2131L34.3923 40.2101L34.0502 40.1597V41.7152L34.3923 41.8073L34.8713 41.7924L36.5075 41.1274L36.4986 40.314L36.5075 41.1274L37.6291 40.5871L42.407 37.7699L43.6773 36.7695L44.4568 36.0422V34.4807Z" fill="#1E1E1E"/>
<path d="M34.8057 40.2932H34.3922L34.1155 40.2457V41.6261L34.3922 41.6885L34.8861 41.6647L34.8057 40.2932Z" fill="#F39737"/>
<path d="M44.2932 34.7329L43.234 35.5998C43.1924 35.6324 43.1597 35.7126 43.1597 35.7749V36.0985C43.1597 36.1638 43.1924 36.1876 43.234 36.1549L44.2932 35.2881C44.3348 35.2554 44.3675 35.1753 44.3675 35.1129V34.7893C44.3675 34.724 44.3348 34.7003 44.2932 34.7329Z" fill="#E5E6EA"/>
<path d="M44.2932 35.4366L43.234 36.3035C43.1924 36.3361 43.1597 36.4163 43.1597 36.4786V36.8022C43.1597 36.8675 43.1924 36.8913 43.234 36.8586L44.2932 35.9918C44.3348 35.9591 44.3675 35.8789 44.3675 35.8166V35.493C44.3675 35.4277 44.3348 35.404 44.2932 35.4366Z" fill="#E5E6EA"/>
<path d="M36.4986 39.6669L35.142 40.2725C35.0884 40.2963 35.0468 40.3675 35.0468 40.4299V40.7534C35.0468 40.8188 35.0884 40.8514 35.142 40.8277L36.4986 40.2221C36.5491 40.1983 36.5938 40.1271 36.5938 40.0647V39.7411C36.5938 39.6758 36.5521 39.6432 36.4986 39.6669Z" fill="#E5E6EA"/>
<path d="M36.4986 40.3675L35.142 40.9731C35.0884 40.9968 35.0468 41.0681 35.0468 41.1304V41.454C35.0468 41.5193 35.0884 41.552 35.142 41.5282L36.4986 40.9226C36.5491 40.8989 36.5938 40.8276 36.5938 40.7653V40.4417C36.5938 40.3764 36.5521 40.3437 36.4986 40.3675Z" fill="#E5E6EA"/>
<path d="M34.544 38.6457L34.3506 38.5032L44.4716 32.6669V32.9756L43.7487 33.789L42.0975 34.9616L37.2066 37.7789L35.5852 38.4913L34.544 38.6457Z" fill="#DFE0EA"/>
<path d="M44.4717 32.6668L43.3293 33.6049L41.9102 34.6261L37.0698 37.4137L35.7043 37.9985L34.3388 38.5507L34.1573 38.2568L44.201 31.9336L44.314 32.4056L44.4717 32.6668Z" fill="#DFE0EA"/>
<path d="M34.1573 38.2567H33.8568L33.1487 37.9896L33.8568 38.4349L34.544 38.6456L34.1573 38.2567Z" fill="#CFD3D6"/>
<path d="M33.8657 42.4842L31.4738 41.1067V41.0889C31.4738 41.0889 31.3964 40.7742 30.9502 39.8866C30.4385 38.8654 29.424 37.9422 29.4151 37.9332L27.1481 36.6152C26.9547 36.5024 26.806 36.2441 26.806 36.0214L27.3653 28.0952C27.3653 27.9972 27.401 27.92 27.4664 27.8844C27.5319 27.8458 27.6181 27.8518 27.7074 27.9052L31.9855 30.3692C32.1104 30.4404 32.2265 30.5799 32.2919 30.7373C32.3455 30.8649 32.3722 30.9926 32.4169 31.2033C32.4555 31.3844 32.5061 31.6338 32.6013 31.9989C32.9405 33.3111 33.7824 36.9863 33.8062 37.1258C33.833 37.2772 33.9014 38.1114 33.9044 38.147L33.8687 42.4871L33.8657 42.4842ZM31.5452 41.0503L33.7824 42.3387L33.8181 38.147C33.8151 38.1025 33.7467 37.2801 33.7229 37.1377C33.6991 36.9981 32.8601 33.3259 32.518 32.0168C32.4228 31.6486 32.3693 31.3993 32.3336 31.2182C32.2889 31.0134 32.2651 30.8887 32.2146 30.767C32.1551 30.6274 32.0539 30.5027 31.9438 30.4404L27.6658 27.9764C27.6062 27.9408 27.5497 27.9349 27.511 27.9557C27.4724 27.9794 27.4515 28.0269 27.4515 28.0981L26.8922 36.0244C26.8922 36.2114 27.0261 36.443 27.1927 36.541L29.4656 37.865C29.4835 37.8798 30.5069 38.8149 31.0275 39.848C31.4232 40.6377 31.5273 40.9731 31.5482 41.0533L31.5452 41.0503Z" fill="#A5ABAF"/>
<path d="M43.9837 32.7619L43.6237 33.1507L42.8086 33.8306L41.7256 34.6588L37.1203 37.3128L35.0586 37.9896L34.3089 38.1856L34.1274 37.8887L32.4049 30.4196L41.8685 24.9692L42.9633 27.5935L44.1205 31.61L44.2009 31.9336V32.4709L43.9837 32.7619Z" fill="#DFE0EA"/>
<path d="M34.4815 37.0485L34.5797 37.387L34.7076 37.6482L35.0468 37.8204L37.0787 37.1435L41.6662 34.5074L42.7372 33.6821L43.588 32.9667L43.8826 32.5421L43.9242 32.2809L43.8171 31.6605L34.4815 37.0485Z" fill="#1E1E1E"/>
<path d="M43.7725 31.7109L42.4367 33.1982L41.4609 33.979L37.9802 35.9472L36.3796 36.627L34.4815 37.0485L34.2316 36.3628L34.9397 35.6978L36.5492 34.8933L38.6436 33.6465L39.1047 32.0701L41.6365 30.666L43.6922 31.6515L43.7725 31.7109Z" fill="#5C5973"/>
<path d="M43.6356 30.9688L43.594 31.0133L42.2582 32.5036L41.2824 33.2814L37.8016 35.2525L36.2011 35.9324L34.303 36.3509L34.0531 35.6652L33.6187 34.1007L32.8125 30.856L33.0624 30.5205L34.0144 30.1881L35.7072 29.4073L38.5721 27.7627L39.5896 27.1749L40.9016 26.2279L41.6662 25.5035L41.809 25.5273L43.0495 28.7483L43.6356 30.9688Z" fill="#1E1E1E"/>
<path d="M43.4929 30.9331L43.2043 31.2567L42.7997 31.7079L42.169 32.4085L41.2081 33.1744L37.7451 35.1367L36.1624 35.8106L34.3834 36.2024L34.1751 35.6265L33.7408 34.065L32.9494 30.8826L33.1428 30.6273L34.0621 30.3067L35.7667 29.523L38.6347 27.8724L38.6674 27.8546L39.661 27.2817L40.982 26.3258L41.5323 25.8062L41.7198 25.6548L42.9246 28.7868L43.4929 30.9331Z" fill="#1E2329"/>
<path d="M43.2043 30.6244V31.2567L42.7997 31.7079L42.1333 31.325C41.9964 31.2478 39.7384 28.8907 38.6674 27.8547L39.658 27.2817L40.9819 26.3228L41.5323 25.8063L41.6573 25.7024C41.9607 26.3852 42.5111 27.7033 42.8086 28.7037C43.2489 30.1821 43.2043 30.6214 43.2043 30.6214V30.6244Z" fill="#313942"/>
<g style="mix-blend-mode:screen">
<path d="M35.7013 29.6121C34.9635 29.9149 34.1424 30.3098 34.1424 30.3098L33.1696 30.6036L32.9316 30.9124L34.3626 36.2084L34.5708 36.8586L36.3112 36.4934L37.8761 35.8344L37.8404 35.1932L35.7013 29.6121Z" fill="#0B0E0F"/>
</g>
<path d="M43.8172 31.6604L43.7726 31.7109L42.4368 33.1982L41.461 33.9789L37.9832 35.9472L36.3797 36.627L34.4816 37.0485L34.2317 36.3628L33.7349 34.5697L33.6188 34.1007L34.0532 35.6651L34.3031 36.3509L36.2012 35.9323L37.8017 35.2525L41.2825 33.2813L42.2583 32.5035L43.5941 31.0133L43.6357 30.9688L43.8172 31.6604Z" fill="#1E1E1E"/>
<path d="M41.8685 24.9662L40.7797 25.7529L39.1226 26.8632L35.4871 28.9561L34.2882 29.4934L32.402 30.4196L32.1759 30.1317L32.7144 29.8229L41.5145 24.7495L41.6365 24.6783L41.8685 24.9662Z" fill="#EAEAEA"/>
<path d="M41.8685 24.9662L40.7796 25.7529L39.1226 26.8631L35.4871 28.956L34.2881 29.4933L32.402 30.4196L32.1759 30.1316L26.089 26.6256L26.5293 26.1655L26.4252 26.4713L32.3633 29.9001L32.7144 29.8229L32.8869 29.7843L35.2967 28.7542L37.9415 27.2312L40.5297 25.5866L41.5145 24.7524V24.7495L41.4341 24.5624L41.6364 24.6782L41.8685 24.9662Z" fill="#DFE0EA"/>
<path d="M38.2509 28.5909L37.882 28.8016C37.6767 28.9204 37.4714 29.054 37.2751 29.1994C37.2096 29.2469 37.1739 29.3449 37.1918 29.4251L37.2364 29.6388C37.2543 29.719 37.3197 29.7575 37.3881 29.7308C37.5994 29.6418 37.8076 29.5379 38.0159 29.4191L38.3848 29.2083C38.59 29.0896 38.7953 28.956 38.9917 28.8106C39.0571 28.7631 39.0928 28.6651 39.075 28.5849L39.0303 28.3712C39.0125 28.291 38.947 28.2524 38.8786 28.2792C38.6674 28.3682 38.4591 28.4721 38.2509 28.5909Z" fill="#272E36"/>
<path d="M38.3342 28.864C38.3313 28.7601 38.3075 28.4692 38.3075 28.4692L37.9415 28.4781C37.9415 28.4781 37.9832 28.8878 37.9862 28.9026C38.007 28.9709 38.0962 29.0421 38.1349 29.0392C38.2242 29.0302 38.3402 28.9768 38.3342 28.864Z" fill="#272E36"/>
<path d="M38.2748 28.3802C38.3313 28.4573 38.3075 28.5583 38.2242 28.6087C38.1409 28.6562 38.0248 28.6355 37.9713 28.5583C37.9148 28.4811 37.9386 28.3802 38.0219 28.3297C38.1052 28.2822 38.2212 28.303 38.2748 28.3802Z" fill="#272E36"/>
<path d="M32.4376 35.3327C32.3394 35.214 32.1847 35.119 32.1847 35.119V35.1249C32.1163 35.0804 32.03 35.0656 31.9229 35.0893L31.3993 35.2051C31.1553 35.2585 30.959 35.496 30.959 35.7335V37.8204C30.959 37.9065 30.9858 37.9808 31.0304 38.0401C31.0304 38.0401 31.0304 38.0431 31.0334 38.0461C31.0988 38.1411 31.2922 38.2717 31.2922 38.2717L31.3517 38.1618C31.3666 38.1618 31.3814 38.1618 31.3963 38.1559L31.9199 38.0401C32.1639 37.9867 32.2591 37.9867 32.381 37.7522C32.381 37.7522 32.3751 36.2708 32.3662 35.6712L32.4376 35.3357V35.3327Z" fill="#B30205"/>
<path d="M32.4167 36.6122L32.7529 36.8616L33.2319 37.1614C33.2319 37.1614 33.455 37.2683 33.4104 37.5444C33.345 37.9422 33.0415 37.8026 33.0415 37.8026L32.3632 37.5622L32.4167 36.6122Z" fill="#B30205"/>
<path d="M32.1192 38.2034L31.5956 38.3192C31.3517 38.3726 31.1553 38.2242 31.1553 37.9867V35.8997C31.1553 35.6622 31.3517 35.4248 31.5956 35.3713L32.1192 35.2555C32.3632 35.2021 32.503 35.3298 32.5595 35.588C32.5714 35.6385 32.5804 37.9154 32.5804 37.9154C32.4584 38.147 32.3632 38.15 32.1192 38.2034Z" fill="#B30205"/>
<path d="M15.9024 12.3168L25.0208 17.5713H25.8568L22.3523 9.06321H21.552L15.9024 12.3168Z" fill="#E8E8E8"/>
<path d="M16.7384 12.0586L25.8568 17.3131L31.5064 14.0594L22.388 8.80494L16.7384 12.0586Z" fill="#F1F1F1"/>
<path d="M16.7384 12.3168L25.8568 17.5713L25.8568 17.3131L16.7384 12.0586V12.3168Z" fill="#BEC3C7"/>
<path d="M31.5064 14.3177L25.8568 17.5713L25.8568 17.3131L31.5064 14.0594L31.5064 14.3177Z" fill="#E0E0E0"/>
<path d="M22.7866 8.37152L17.8451 11.2184L17.4851 12.0823L22.4266 9.23539L22.7866 8.37152Z" fill="#E0DAD3"/>
<path d="M30.7567 14.0357L25.8182 16.8826L25.4969 15.6269L30.4384 12.7799L30.7567 14.0357Z" fill="#E0E0E0"/>
<path d="M30.4384 12.7799L25.4969 15.6269L17.8451 11.2184L22.7866 8.37152L30.4384 12.7799Z" fill="#F1F1F1"/>
<path d="M21.3943 10.5772L26.5738 13.5607L26.8505 13.4004L21.671 10.4169L21.3943 10.5772Z" fill="#F1F1F1"/>
<path d="M17.4851 12.0823L25.8182 16.8826L25.4969 15.6269L17.8451 11.2184L17.4851 12.0823Z" fill="#BEC3C7"/>
<path d="M24.6757 14.5345L24.7798 14.5939L28.6444 12.3674L28.5403 12.308L24.6757 14.5345Z" fill="#493F41"/>
<path d="M24.3128 14.3237L24.4169 14.3861L28.2815 12.1596L28.1773 12.1002L24.3128 14.3237Z" fill="#493F41"/>
<path d="M23.9498 14.1159L24.054 14.1753L27.9185 11.9518L27.8144 11.8894L23.9498 14.1159Z" fill="#493F41"/>
<path d="M23.5869 13.9081L23.694 13.9675L27.5555 11.741L27.4514 11.6816L23.5869 13.9081Z" fill="#493F41"/>
<path d="M23.2269 13.6973L23.331 13.7597L27.1926 11.5332L27.0885 11.4738L23.2269 13.6973Z" fill="#493F41"/>
<path d="M22.8639 13.4895L22.9681 13.5489L26.8297 11.3224L26.7255 11.2631L22.8639 13.4895Z" fill="#493F41"/>
<path d="M22.501 13.2817L22.6051 13.3411L26.4697 11.1146L26.3626 11.0552L22.501 13.2817Z" fill="#493F41"/>
<path d="M22.138 13.071L22.2422 13.1333L26.1067 10.9068L26.0026 10.8475L22.138 13.071Z" fill="#493F41"/>
<path d="M21.7751 12.8632L21.8792 12.9225L25.7437 10.696L25.6396 10.6367L21.7751 12.8632Z" fill="#493F41"/>
<path d="M21.4121 12.6553L21.5192 12.7147L25.3808 10.4882L25.2767 10.4289L21.4121 12.6553Z" fill="#493F41"/>
<path d="M21.0522 12.4446L21.1563 12.504L25.0179 10.2804L24.9137 10.2181L21.0522 12.4446Z" fill="#493F41"/>
<path d="M20.6892 12.2368L20.7933 12.2961L24.6549 10.0697L24.5508 10.0103L20.6892 12.2368Z" fill="#493F41"/>
<path d="M20.3263 12.029L20.4304 12.0883L24.2949 9.86186L24.1878 9.80249L20.3263 12.029Z" fill="#493F41"/>
<path d="M19.9633 11.8182L20.0674 11.8776L23.932 9.65406L23.8279 9.59172L19.9633 11.8182Z" fill="#493F41"/>
<path d="M19.6003 11.6104L19.7045 11.6698L23.569 9.44328L23.4649 9.38391L19.6003 11.6104Z" fill="#493F41"/>
<path d="M33.9192 29.2649L27.5765 25.5957L27.6895 25.5274L33.9579 29.2649H33.9192Z" fill="#BEC3C7"/>
<path d="M33.9579 29.2263L27.6152 25.5571L27.7282 25.4918L34.0739 29.161L33.9579 29.2263Z" fill="#EAEAEA"/>
<path d="M33.9579 29.2263V29.2649L34.0739 29.1966L34.0739 29.161L33.9579 29.2263Z" fill="#F4F1EE"/>
<path d="M33.9579 29.2649L27.6152 25.5957V25.5571L33.9579 29.2263V29.2649Z" fill="#BEC3C7"/>
<path d="M35.1777 28.5376L28.8349 24.8683L28.948 24.803L35.2163 28.5376H35.1777Z" fill="#BEC3C7"/>
<path d="M35.2163 28.502L28.8736 24.8327L28.9896 24.7644L35.3324 28.4337L35.2163 28.502Z" fill="#EAEAEA"/>
<path d="M35.2163 28.502L35.2163 28.5376L35.3324 28.4723V28.4337L35.2163 28.502Z" fill="#F4F1EE"/>
<path d="M35.2163 28.5376L28.8736 24.8683V24.8327L35.2163 28.502L35.2163 28.5376Z" fill="#BEC3C7"/>
<path d="M36.4361 27.8132L30.0933 24.144L30.2094 24.0787L36.4777 27.8132H36.4361Z" fill="#BEC3C7"/>
<path d="M36.4777 27.7746L30.135 24.1054L30.248 24.0401L36.5908 27.7093L36.4777 27.7746Z" fill="#EAEAEA"/>
<path d="M36.4777 27.7746V27.8132L36.5908 27.7479V27.7093L36.4777 27.7746Z" fill="#F4F1EE"/>
<path d="M36.4777 27.8132L30.135 24.144V24.1054L36.4777 27.7746V27.8132Z" fill="#BEC3C7"/>
<path d="M37.6975 27.0889L31.3518 23.4196L31.4678 23.3514L37.7362 27.0889H37.6975Z" fill="#BEC3C7"/>
<path d="M37.7362 27.0503L31.3934 23.381L31.5065 23.3157L37.8492 26.985L37.7362 27.0503Z" fill="#EAEAEA"/>
<path d="M37.7362 27.0503L37.7362 27.0889L37.8492 27.0206L37.8492 26.985L37.7362 27.0503Z" fill="#F4F1EE"/>
<path d="M37.7362 27.0889L31.3934 23.4196V23.381L37.7362 27.0503L37.7362 27.0889Z" fill="#BEC3C7"/>
<path d="M38.9559 26.3616L32.6132 22.6923L32.7262 22.627L38.9946 26.3616H38.9559Z" fill="#BEC3C7"/>
<path d="M38.9946 26.3259L32.6519 22.6567L32.7679 22.5884L39.1106 26.2577L38.9946 26.3259Z" fill="#EAEAEA"/>
<path d="M38.9946 26.3259L38.9946 26.3616L39.1106 26.2963V26.2577L38.9946 26.3259Z" fill="#F4F1EE"/>
<path d="M38.9946 26.3616L32.6519 22.6923V22.6567L38.9946 26.3259L38.9946 26.3616Z" fill="#BEC3C7"/>
<path d="M40.2144 25.6372L33.8716 21.968L33.9847 21.9027L40.253 25.6372H40.2144Z" fill="#BEC3C7"/>
<path d="M40.253 25.5986L33.9103 21.9294L34.0263 21.8641L40.3691 25.5333L40.253 25.5986Z" fill="#EAEAEA"/>
<path d="M40.253 25.5986V25.6372L40.3691 25.5719V25.5333L40.253 25.5986Z" fill="#F4F1EE"/>
<path d="M40.253 25.6372L33.9103 21.968V21.9294L40.253 25.5986V25.6372Z" fill="#BEC3C7"/>
<g opacity="0.5">
<path d="M35.4067 28.3505L35.0527 28.1486L35.3323 27.9824L35.606 28.3505H35.4067Z" fill="#B30205"/>
<path d="M36.799 27.5222L36.445 27.3204L36.7247 27.1541L36.9984 27.5222H36.799Z" fill="#B30205"/>
<path d="M38.1913 26.694L37.8403 26.4921L38.1199 26.3289L38.3936 26.694H38.1913Z" fill="#B30205"/>
</g>
<path d="M35.6059 28.3505L35.8856 28.1843V28.0477L35.6059 28.211V28.3505Z" fill="#1B293D"/>
<path d="M35.6059 28.211L35.2519 28.0121L35.5315 27.8458L35.8856 28.0477L35.6059 28.211Z" fill="#1B293D"/>
<path d="M35.6059 28.211L35.2519 28.0121V28.1486L35.6059 28.3505V28.211Z" fill="#1B293D"/>
<path d="M36.9983 27.5222L37.2779 27.356V27.2194L36.9983 27.3857V27.5222Z" fill="#1B293D"/>
<path d="M36.9983 27.3857L36.6472 27.1838L36.9269 27.0176L37.2779 27.2194L36.9983 27.3857Z" fill="#1B293D"/>
<path d="M36.9983 27.3857L36.6472 27.1838V27.3204L36.9983 27.5222V27.3857Z" fill="#1B293D"/>
<path d="M38.3935 26.694L38.6732 26.5307V26.3912L38.3935 26.5574V26.694Z" fill="#1B293D"/>
<path d="M38.3935 26.5574L38.0395 26.3556L38.3192 26.1893L38.6732 26.3912L38.3935 26.5574Z" fill="#1B293D"/>
<path d="M38.3935 26.5574L38.0395 26.3556V26.4921L38.3935 26.694V26.5574Z" fill="#1B293D"/>
<path d="M44.4567 36.5707V36.915L44.0789 37.3099L43.2429 38.0609L42.5051 38.5834L38.9291 40.6021L36.5164 41.9291L34.5826 42.6297H33.9846L34.0709 42.5792L34.3148 42.4367L37.2482 41.0622L42.758 37.9748L44.4567 36.5707Z" fill="#CFD3D6"/>
<path d="M44.4567 36.8646V36.915L44.0789 37.3099L43.2429 38.0609L42.5051 38.5834L37.3732 41.4808L36.5164 41.9291L34.5826 42.6297H33.9846V42.5792H34.5826L36.5164 41.8786L37.3732 41.4333L42.5051 38.5329L43.2429 38.0134L44.0789 37.2594L44.4567 36.8646Z" fill="#292929"/>
<path d="M36.3498 16.0692L27.6091 21.107L25.8658 20.1036L34.6064 15.0658L36.3498 16.0692Z" fill="#B30205"/>
<path d="M36.9596 16.8826V19.0705L35.96 19.6405L27.2194 24.6782L25.8658 20.1036L27.6091 21.107L36.3498 16.0692L36.9596 16.8826Z" fill="#B30205"/>
<path d="M28.219 21.9174V24.1083L27.2194 24.6782L25.8658 23.8975L25.8658 20.1036L27.6091 21.107L28.219 21.9174Z" fill="#B30205"/>
<g opacity="0.5">
<path d="M25.8658 23.8975V20.3202L27.4485 21.2316L28.0286 22.0035V24.1082L27.1272 24.6218L25.8658 23.8975Z" fill="#BEC3C7"/>
<path d="M36.9596 16.8826L28.219 21.9174L27.6091 21.1069L36.3498 16.0692L36.9596 16.8826Z" fill="#EAEAEA"/>
</g>
<path d="M32.5894 20.2224L32.283 20.3975V20.1006L32.5894 19.9255V20.2224Z" fill="url(#paint7_linear_856_9287)"/>
<path d="M33.1457 19.9018L32.8393 20.0769V19.78L33.1457 19.6049V19.9018Z" fill="url(#paint8_linear_856_9287)"/>
<path d="M33.702 19.5811L33.3956 19.7563V19.4594L33.702 19.2843V19.5811Z" fill="url(#paint9_linear_856_9287)"/>
<path d="M34.2584 19.2605L33.9519 19.4357V19.1388L34.2584 18.9637V19.2605Z" fill="url(#paint10_linear_856_9287)"/>
<path d="M34.8147 18.9399L34.5083 19.1151V18.8182L34.8147 18.6431V18.9399Z" fill="url(#paint11_linear_856_9287)"/>
<path d="M35.371 18.6193L35.0646 18.7945V18.4976L35.371 18.3224V18.6193Z" fill="url(#paint12_linear_856_9287)"/>
<path d="M35.9273 18.2987L35.6209 18.4738V18.177L35.9273 18.0018V18.2987Z" fill="url(#paint13_linear_856_9287)"/>
<path d="M36.4837 17.9781L36.1773 18.1532V17.8564L36.4837 17.6812V17.9781Z" fill="url(#paint14_linear_856_9287)"/>
<path d="M32.5894 20.6944L32.283 20.8695V20.5727L32.5894 20.3975V20.6944Z" fill="url(#paint15_linear_856_9287)"/>
<path d="M33.1457 20.3738L32.8393 20.5489V20.2521L33.1457 20.0769V20.3738Z" fill="url(#paint16_linear_856_9287)"/>
<path d="M33.702 20.0532L33.3956 20.2283V19.9314L33.702 19.7563V20.0532Z" fill="url(#paint17_linear_856_9287)"/>
<path d="M34.2584 19.7325L33.9519 19.9077V19.6108L34.2584 19.4357V19.7325Z" fill="url(#paint18_linear_856_9287)"/>
<path d="M34.8147 19.4119L34.5083 19.5871V19.2902L34.8147 19.1151V19.4119Z" fill="url(#paint19_linear_856_9287)"/>
<path d="M35.371 19.0913L35.0646 19.2665V18.9696L35.371 18.7945V19.0913Z" fill="url(#paint20_linear_856_9287)"/>
<path d="M35.9273 18.7707L35.6209 18.9459V18.649L35.9273 18.4738V18.7707Z" fill="url(#paint21_linear_856_9287)"/>
<path d="M36.4837 18.4501L36.1773 18.6252V18.3284L36.4837 18.1532V18.4501Z" fill="url(#paint22_linear_856_9287)"/>
<path d="M32.5894 21.1664L32.283 21.3415V21.0447L32.5894 20.8695V21.1664Z" fill="url(#paint23_linear_856_9287)"/>
<path d="M33.1457 20.8458L32.8393 21.0209V20.7241L33.1457 20.5489V20.8458Z" fill="url(#paint24_linear_856_9287)"/>
<path d="M33.702 20.5252L33.3956 20.7003V20.4035L33.702 20.2283V20.5252Z" fill="url(#paint25_linear_856_9287)"/>
<path d="M34.2584 20.2046L33.9519 20.3797V20.0828L34.2584 19.9077V20.2046Z" fill="url(#paint26_linear_856_9287)"/>
<path d="M34.8147 19.8839L34.5083 20.0591V19.7622L34.8147 19.5871V19.8839Z" fill="url(#paint27_linear_856_9287)"/>
<path d="M35.371 19.5633L35.0646 19.7385V19.4416L35.371 19.2665V19.5633Z" fill="url(#paint28_linear_856_9287)"/>
<path d="M35.9273 19.2427L35.6209 19.4179V19.121L35.9273 18.9459V19.2427Z" fill="url(#paint29_linear_856_9287)"/>
<path d="M36.4837 18.9221L36.1773 19.1002V18.8004L36.4837 18.6252V18.9221Z" fill="url(#paint30_linear_856_9287)"/>
<defs>
<linearGradient id="paint0_linear_856_9287" x1="10.7759" y1="73.3098" x2="11.5877" y2="72.2493" gradientUnits="userSpaceOnUse">
<stop offset="0.02" stop-color="#2E2E3B"/>
<stop offset="0.14" stop-color="#393945"/>
<stop offset="0.3" stop-color="#40404B"/>
<stop offset="0.77" stop-color="#42424D"/>
</linearGradient>
<linearGradient id="paint1_linear_856_9287" x1="31.4649" y1="43.4193" x2="28.5469" y2="38.3553" gradientUnits="userSpaceOnUse">
<stop stop-color="#181818"/>
<stop offset="0.27" stop-color="#262626"/>
<stop offset="0.77" stop-color="#2E2E2E"/>
</linearGradient>
<linearGradient id="paint2_linear_856_9287" x1="27.8354" y1="43.3272" x2="29.8934" y2="39.758" gradientUnits="userSpaceOnUse">
<stop stop-color="#141414"/>
<stop offset="0.44" stop-color="#1E1E1E"/>
<stop offset="0.78" stop-color="#202020"/>
<stop offset="0.98" stop-color="#282828"/>
<stop offset="1" stop-color="#2A2A2A"/>
</linearGradient>
<linearGradient id="paint3_linear_856_9287" x1="27.8382" y1="43.2709" x2="29.8162" y2="39.8355" gradientUnits="userSpaceOnUse">
<stop stop-color="#161616"/>
<stop offset="0.3" stop-color="#1A1A1A"/>
<stop offset="0.79" stop-color="#1D1D1D"/>
<stop offset="0.8" stop-color="#1E1E1E"/>
</linearGradient>
<linearGradient id="paint4_linear_856_9287" x1="11.672" y1="31.987" x2="8.75403" y2="26.923" gradientUnits="userSpaceOnUse">
<stop stop-color="#181818"/>
<stop offset="0.27" stop-color="#262626"/>
<stop offset="0.77" stop-color="#2E2E2E"/>
</linearGradient>
<linearGradient id="paint5_linear_856_9287" x1="8.04246" y1="31.8921" x2="10.1005" y2="28.3229" gradientUnits="userSpaceOnUse">
<stop stop-color="#141414"/>
<stop offset="0.44" stop-color="#1E1E1E"/>
<stop offset="0.78" stop-color="#202020"/>
<stop offset="0.98" stop-color="#282828"/>
<stop offset="1" stop-color="#2A2A2A"/>
</linearGradient>
<linearGradient id="paint6_linear_856_9287" x1="8.04549" y1="31.8357" x2="10.0234" y2="28.4032" gradientUnits="userSpaceOnUse">
<stop stop-color="#161616"/>
<stop offset="0.3" stop-color="#1A1A1A"/>
<stop offset="0.79" stop-color="#1D1D1D"/>
<stop offset="0.8" stop-color="#1E1E1E"/>
</linearGradient>
<linearGradient id="paint7_linear_856_9287" x1="32.4461" y1="21.4106" x2="33.9328" y2="16.8361" gradientUnits="userSpaceOnUse">
<stop stop-color="#161616"/>
<stop offset="0.3" stop-color="#1A1A1A"/>
<stop offset="0.79" stop-color="#1D1D1D"/>
<stop offset="0.8" stop-color="#1E1E1E"/>
</linearGradient>
<linearGradient id="paint8_linear_856_9287" x1="32.4461" y1="21.4106" x2="33.9328" y2="16.8361" gradientUnits="userSpaceOnUse">
<stop stop-color="#161616"/>
<stop offset="0.3" stop-color="#1A1A1A"/>
<stop offset="0.79" stop-color="#1D1D1D"/>
<stop offset="0.8" stop-color="#1E1E1E"/>
</linearGradient>
<linearGradient id="paint9_linear_856_9287" x1="32.4461" y1="21.4106" x2="33.9328" y2="16.8361" gradientUnits="userSpaceOnUse">
<stop stop-color="#161616"/>
<stop offset="0.3" stop-color="#1A1A1A"/>
<stop offset="0.79" stop-color="#1D1D1D"/>
<stop offset="0.8" stop-color="#1E1E1E"/>
</linearGradient>
<linearGradient id="paint10_linear_856_9287" x1="32.4461" y1="21.4106" x2="33.9328" y2="16.8361" gradientUnits="userSpaceOnUse">
<stop stop-color="#161616"/>
<stop offset="0.3" stop-color="#1A1A1A"/>
<stop offset="0.79" stop-color="#1D1D1D"/>
<stop offset="0.8" stop-color="#1E1E1E"/>
</linearGradient>
<linearGradient id="paint11_linear_856_9287" x1="32.4461" y1="21.4106" x2="33.9328" y2="16.8361" gradientUnits="userSpaceOnUse">
<stop stop-color="#161616"/>
<stop offset="0.3" stop-color="#1A1A1A"/>
<stop offset="0.79" stop-color="#1D1D1D"/>
<stop offset="0.8" stop-color="#1E1E1E"/>
</linearGradient>
<linearGradient id="paint12_linear_856_9287" x1="32.4461" y1="21.4106" x2="33.9356" y2="16.8553" gradientUnits="userSpaceOnUse">
<stop stop-color="#161616"/>
<stop offset="0.3" stop-color="#1A1A1A"/>
<stop offset="0.79" stop-color="#1D1D1D"/>
<stop offset="0.8" stop-color="#1E1E1E"/>
</linearGradient>
<linearGradient id="paint13_linear_856_9287" x1="32.4461" y1="21.4106" x2="33.9356" y2="16.8553" gradientUnits="userSpaceOnUse">
<stop stop-color="#161616"/>
<stop offset="0.3" stop-color="#1A1A1A"/>
<stop offset="0.79" stop-color="#1D1D1D"/>
<stop offset="0.8" stop-color="#1E1E1E"/>
</linearGradient>
<linearGradient id="paint14_linear_856_9287" x1="32.4461" y1="21.4106" x2="33.9356" y2="16.8553" gradientUnits="userSpaceOnUse">
<stop stop-color="#161616"/>
<stop offset="0.3" stop-color="#1A1A1A"/>
<stop offset="0.79" stop-color="#1D1D1D"/>
<stop offset="0.8" stop-color="#1E1E1E"/>
</linearGradient>
<linearGradient id="paint15_linear_856_9287" x1="32.4461" y1="21.4106" x2="33.9328" y2="16.8361" gradientUnits="userSpaceOnUse">
<stop stop-color="#161616"/>
<stop offset="0.3" stop-color="#1A1A1A"/>
<stop offset="0.79" stop-color="#1D1D1D"/>
<stop offset="0.8" stop-color="#1E1E1E"/>
</linearGradient>
<linearGradient id="paint16_linear_856_9287" x1="32.4461" y1="21.4106" x2="33.9328" y2="16.8361" gradientUnits="userSpaceOnUse">
<stop stop-color="#161616"/>
<stop offset="0.3" stop-color="#1A1A1A"/>
<stop offset="0.79" stop-color="#1D1D1D"/>
<stop offset="0.8" stop-color="#1E1E1E"/>
</linearGradient>
<linearGradient id="paint17_linear_856_9287" x1="32.4461" y1="21.4106" x2="33.9328" y2="16.8361" gradientUnits="userSpaceOnUse">
<stop stop-color="#161616"/>
<stop offset="0.3" stop-color="#1A1A1A"/>
<stop offset="0.79" stop-color="#1D1D1D"/>
<stop offset="0.8" stop-color="#1E1E1E"/>
</linearGradient>
<linearGradient id="paint18_linear_856_9287" x1="32.4461" y1="21.4106" x2="33.9328" y2="16.8361" gradientUnits="userSpaceOnUse">
<stop stop-color="#161616"/>
<stop offset="0.3" stop-color="#1A1A1A"/>
<stop offset="0.79" stop-color="#1D1D1D"/>
<stop offset="0.8" stop-color="#1E1E1E"/>
</linearGradient>
<linearGradient id="paint19_linear_856_9287" x1="32.4461" y1="21.4106" x2="33.9356" y2="16.8553" gradientUnits="userSpaceOnUse">
<stop stop-color="#161616"/>
<stop offset="0.3" stop-color="#1A1A1A"/>
<stop offset="0.79" stop-color="#1D1D1D"/>
<stop offset="0.8" stop-color="#1E1E1E"/>
</linearGradient>
<linearGradient id="paint20_linear_856_9287" x1="32.4461" y1="21.4106" x2="33.9356" y2="16.8553" gradientUnits="userSpaceOnUse">
<stop stop-color="#161616"/>
<stop offset="0.3" stop-color="#1A1A1A"/>
<stop offset="0.79" stop-color="#1D1D1D"/>
<stop offset="0.8" stop-color="#1E1E1E"/>
</linearGradient>
<linearGradient id="paint21_linear_856_9287" x1="32.4461" y1="21.4106" x2="33.9356" y2="16.8553" gradientUnits="userSpaceOnUse">
<stop stop-color="#161616"/>
<stop offset="0.3" stop-color="#1A1A1A"/>
<stop offset="0.79" stop-color="#1D1D1D"/>
<stop offset="0.8" stop-color="#1E1E1E"/>
</linearGradient>
<linearGradient id="paint22_linear_856_9287" x1="32.4461" y1="21.4106" x2="33.9356" y2="16.8553" gradientUnits="userSpaceOnUse">
<stop stop-color="#161616"/>
<stop offset="0.3" stop-color="#1A1A1A"/>
<stop offset="0.79" stop-color="#1D1D1D"/>
<stop offset="0.8" stop-color="#1E1E1E"/>
</linearGradient>
<linearGradient id="paint23_linear_856_9287" x1="32.4461" y1="21.4106" x2="33.9328" y2="16.8361" gradientUnits="userSpaceOnUse">
<stop stop-color="#161616"/>
<stop offset="0.3" stop-color="#1A1A1A"/>
<stop offset="0.79" stop-color="#1D1D1D"/>
<stop offset="0.8" stop-color="#1E1E1E"/>
</linearGradient>
<linearGradient id="paint24_linear_856_9287" x1="32.4461" y1="21.4106" x2="33.9328" y2="16.8361" gradientUnits="userSpaceOnUse">
<stop stop-color="#161616"/>
<stop offset="0.3" stop-color="#1A1A1A"/>
<stop offset="0.79" stop-color="#1D1D1D"/>
<stop offset="0.8" stop-color="#1E1E1E"/>
</linearGradient>
<linearGradient id="paint25_linear_856_9287" x1="32.4461" y1="21.4106" x2="33.9328" y2="16.8361" gradientUnits="userSpaceOnUse">
<stop stop-color="#161616"/>
<stop offset="0.3" stop-color="#1A1A1A"/>
<stop offset="0.79" stop-color="#1D1D1D"/>
<stop offset="0.8" stop-color="#1E1E1E"/>
</linearGradient>
<linearGradient id="paint26_linear_856_9287" x1="32.4461" y1="21.4106" x2="33.9328" y2="16.8361" gradientUnits="userSpaceOnUse">
<stop stop-color="#161616"/>
<stop offset="0.3" stop-color="#1A1A1A"/>
<stop offset="0.79" stop-color="#1D1D1D"/>
<stop offset="0.8" stop-color="#1E1E1E"/>
</linearGradient>
<linearGradient id="paint27_linear_856_9287" x1="32.4461" y1="21.4106" x2="33.9356" y2="16.8553" gradientUnits="userSpaceOnUse">
<stop stop-color="#161616"/>
<stop offset="0.3" stop-color="#1A1A1A"/>
<stop offset="0.79" stop-color="#1D1D1D"/>
<stop offset="0.8" stop-color="#1E1E1E"/>
</linearGradient>
<linearGradient id="paint28_linear_856_9287" x1="32.4461" y1="21.4106" x2="33.9356" y2="16.8553" gradientUnits="userSpaceOnUse">
<stop stop-color="#161616"/>
<stop offset="0.3" stop-color="#1A1A1A"/>
<stop offset="0.79" stop-color="#1D1D1D"/>
<stop offset="0.8" stop-color="#1E1E1E"/>
</linearGradient>
<linearGradient id="paint29_linear_856_9287" x1="32.4461" y1="21.4106" x2="33.9356" y2="16.8553" gradientUnits="userSpaceOnUse">
<stop stop-color="#161616"/>
<stop offset="0.3" stop-color="#1A1A1A"/>
<stop offset="0.79" stop-color="#1D1D1D"/>
<stop offset="0.8" stop-color="#1E1E1E"/>
</linearGradient>
<linearGradient id="paint30_linear_856_9287" x1="36.1892" y1="19.1062" x2="36.4709" y2="18.6188" gradientUnits="userSpaceOnUse">
<stop stop-color="#161616"/>
<stop offset="0.3" stop-color="#1A1A1A"/>
<stop offset="0.79" stop-color="#1D1D1D"/>
<stop offset="0.8" stop-color="#1E1E1E"/>
</linearGradient>
</defs>
</svg>
