<svg width="140" height="45" viewBox="0 0 140 45" fill="none" xmlns="http://www.w3.org/2000/svg">
<path d="M0 10C0 4.47715 4.47715 0 10 0H130C135.523 0 140 4.47715 140 10V35C140 40.5228 135.523 45 130 45H10C4.47716 45 0 40.5228 0 35V10Z" fill="#B30205"/>
<path d="M65.5258 16.545L62.1208 23.055V27H60.7558V23.055L57.3358 16.545H58.8508L61.4308 21.84L64.0108 16.545H65.5258ZM74.4655 22.575C74.4655 22.835 74.4505 23.11 74.4205 23.4H67.8505C67.9005 24.21 68.1755 24.845 68.6755 25.305C69.1855 25.755 69.8005 25.98 70.5205 25.98C71.1105 25.98 71.6005 25.845 71.9905 25.575C72.3905 25.295 72.6705 24.925 72.8305 24.465H74.3005C74.0805 25.255 73.6405 25.9 72.9805 26.4C72.3205 26.89 71.5005 27.135 70.5205 27.135C69.7405 27.135 69.0405 26.96 68.4205 26.61C67.8105 26.26 67.3305 25.765 66.9805 25.125C66.6305 24.475 66.4555 23.725 66.4555 22.875C66.4555 22.025 66.6255 21.28 66.9655 20.64C67.3055 20 67.7805 19.51 68.3905 19.17C69.0105 18.82 69.7205 18.645 70.5205 18.645C71.3005 18.645 71.9905 18.815 72.5905 19.155C73.1905 19.495 73.6505 19.965 73.9705 20.565C74.3005 21.155 74.4655 21.825 74.4655 22.575ZM73.0555 22.29C73.0555 21.77 72.9405 21.325 72.7105 20.955C72.4805 20.575 72.1655 20.29 71.7655 20.1C71.3755 19.9 70.9405 19.8 70.4605 19.8C69.7705 19.8 69.1805 20.02 68.6905 20.46C68.2105 20.9 67.9355 21.51 67.8655 22.29H73.0555ZM79.1773 27.135C78.5473 27.135 77.9823 27.03 77.4823 26.82C76.9823 26.6 76.5873 26.3 76.2973 25.92C76.0073 25.53 75.8473 25.085 75.8173 24.585H77.2273C77.2673 24.995 77.4573 25.33 77.7973 25.59C78.1473 25.85 78.6023 25.98 79.1623 25.98C79.6823 25.98 80.0923 25.865 80.3923 25.635C80.6923 25.405 80.8423 25.115 80.8423 24.765C80.8423 24.405 80.6823 24.14 80.3623 23.97C80.0423 23.79 79.5473 23.615 78.8773 23.445C78.2673 23.285 77.7673 23.125 77.3773 22.965C76.9973 22.795 76.6673 22.55 76.3873 22.23C76.1173 21.9 75.9823 21.47 75.9823 20.94C75.9823 20.52 76.1073 20.135 76.3573 19.785C76.6073 19.435 76.9623 19.16 77.4223 18.96C77.8823 18.75 78.4073 18.645 78.9973 18.645C79.9073 18.645 80.6423 18.875 81.2023 19.335C81.7623 19.795 82.0623 20.425 82.1023 21.225H80.7373C80.7073 20.795 80.5323 20.45 80.2123 20.19C79.9023 19.93 79.4823 19.8 78.9523 19.8C78.4623 19.8 78.0723 19.905 77.7823 20.115C77.4923 20.325 77.3473 20.6 77.3473 20.94C77.3473 21.21 77.4323 21.435 77.6023 21.615C77.7823 21.785 78.0023 21.925 78.2623 22.035C78.5323 22.135 78.9023 22.25 79.3723 22.38C79.9623 22.54 80.4423 22.7 80.8123 22.86C81.1823 23.01 81.4973 23.24 81.7573 23.55C82.0273 23.86 82.1673 24.265 82.1773 24.765C82.1773 25.215 82.0523 25.62 81.8023 25.98C81.5523 26.34 81.1973 26.625 80.7373 26.835C80.2873 27.035 79.7673 27.135 79.1773 27.135Z" fill="white"/>
</svg>
