<svg width="15" height="15" viewBox="0 0 15 15" fill="none" xmlns="http://www.w3.org/2000/svg">
<path opacity="0.5" d="M15 6.25V15H0V6.25H15ZM15 5V3.125C15 2.62772 14.8025 2.15081 14.4508 1.79917C14.0992 1.44754 13.6223 1.25 13.125 1.25H11.25V0H10V1.25H5V0H3.75V1.25H1.875C1.37772 1.25 0.900805 1.44754 0.549175 1.79917C0.197544 2.15081 0 2.62772 0 3.125V5H15ZM11.25 8.75H10V10H11.25V8.75ZM8.125 8.75H6.875V10H8.125V8.75ZM5 8.75H3.75V10H5V8.75ZM11.25 11.25H10V12.5H11.25V11.25ZM8.125 11.25H6.875V12.5H8.125V11.25ZM5 11.25H3.75V12.5H5V11.25Z" fill="#1B293D"/>
</svg>
