<svg width="366" height="30" viewBox="0 0 366 30" fill="none" xmlns="http://www.w3.org/2000/svg">
<rect width="366" height="30" fill="#B30205"/>
<path d="M27.845 20V15.26H22.52V20H21.155V9.545H22.52V14.135H27.845V9.545H29.21V20H27.845ZM39.3261 15.875C39.3261 18.485 37.4511 20.135 35.1111 20.135C32.7861 20.135 31.0161 18.485 31.0161 15.875C31.0161 13.28 32.8461 11.645 35.1711 11.645C37.5111 11.645 39.3261 13.28 39.3261 15.875ZM32.4111 15.875C32.4111 17.96 33.6861 18.935 35.1111 18.935C36.5361 18.935 37.9311 17.96 37.9311 15.875C37.9311 13.805 36.5661 12.83 35.1561 12.83C33.7161 12.83 32.4111 13.805 32.4111 15.875ZM42.7258 20L40.1458 11.78H41.5408L43.4308 18.68L45.4708 11.78H46.8658L48.8608 18.695L50.7208 11.78H52.0708L49.5058 20H48.0958L46.1158 13.475L44.1358 20H42.7258ZM56.9145 15.875C56.9145 13.295 58.5795 11.645 60.9195 11.645C62.9595 11.645 64.2945 12.695 64.7145 14.42H63.2445C62.9595 13.43 62.1345 12.8 60.9195 12.8C59.4195 12.8 58.3095 13.865 58.3095 15.875C58.3095 17.915 59.4195 18.98 60.9195 18.98C62.1345 18.98 62.9445 18.395 63.2445 17.36H64.7145C64.2945 18.995 62.9595 20.135 60.9195 20.135C58.5795 20.135 56.9145 18.485 56.9145 15.875ZM66.0259 15.86C66.0259 13.295 67.7209 11.645 69.9259 11.645C71.4559 11.645 72.5059 12.425 72.9859 13.28V11.78H74.3659V20H72.9859V18.47C72.4909 19.355 71.4259 20.135 69.9109 20.135C67.7209 20.135 66.0259 18.41 66.0259 15.86ZM72.9859 15.875C72.9859 13.97 71.6959 12.83 70.1959 12.83C68.6959 12.83 67.4209 13.925 67.4209 15.86C67.4209 17.795 68.6959 18.935 70.1959 18.935C71.6959 18.935 72.9859 17.81 72.9859 15.875ZM82.6876 20V15.35C82.6876 13.67 81.7726 12.815 80.3926 12.815C78.9976 12.815 78.0376 13.685 78.0376 15.455V20H76.6726V11.78H78.0376V12.95C78.5776 12.095 79.5676 11.63 80.6776 11.63C82.5826 11.63 84.0376 12.8 84.0376 15.155V20H82.6876ZM91.8713 20L89.2913 11.78H90.6863L92.5763 18.68L94.6163 11.78H96.0113L98.0063 18.695L99.8663 11.78H101.216L98.6513 20H97.2413L95.2613 13.475L93.2813 20H91.8713ZM106.066 12.8C104.731 12.8 103.621 13.685 103.471 15.29H108.661C108.676 13.685 107.476 12.8 106.066 12.8ZM109.906 17.465C109.486 18.965 108.166 20.135 106.126 20.135C103.786 20.135 102.061 18.485 102.061 15.875C102.061 13.28 103.726 11.645 106.126 11.645C108.511 11.645 110.071 13.325 110.071 15.575C110.071 15.875 110.056 16.115 110.026 16.4H103.456C103.561 18.065 104.731 18.98 106.126 18.98C107.356 18.98 108.136 18.35 108.436 17.465H109.906ZM115.872 20V8.9H117.237V12.965C117.777 12.095 118.797 11.63 119.952 11.63C121.782 11.63 123.237 12.8 123.237 15.155V20H121.887V15.35C121.887 13.67 120.972 12.815 119.592 12.815C118.197 12.815 117.237 13.685 117.237 15.455V20H115.872ZM128.962 12.8C127.627 12.8 126.517 13.685 126.367 15.29H131.557C131.572 13.685 130.372 12.8 128.962 12.8ZM132.802 17.465C132.382 18.965 131.062 20.135 129.022 20.135C126.682 20.135 124.957 18.485 124.957 15.875C124.957 13.28 126.622 11.645 129.022 11.645C131.407 11.645 132.967 13.325 132.967 15.575C132.967 15.875 132.952 16.115 132.922 16.4H126.352C126.457 18.065 127.627 18.98 129.022 18.98C130.252 18.98 131.032 18.35 131.332 17.465H132.802ZM134.768 20V8.9H136.133V20H134.768ZM139.825 13.295C140.32 12.425 141.4 11.645 142.9 11.645C145.105 11.645 146.8 13.295 146.8 15.86C146.8 18.41 145.105 20.135 142.9 20.135C141.4 20.135 140.335 19.325 139.825 18.485V23.9H138.46V11.78H139.825V13.295ZM145.405 15.86C145.405 13.925 144.13 12.83 142.615 12.83C141.13 12.83 139.825 13.97 139.825 15.875C139.825 17.81 141.13 18.935 142.615 18.935C144.13 18.935 145.405 17.795 145.405 15.86ZM155.715 18.44L158.265 11.78H159.675L154.725 23.87H153.315L154.935 19.91L151.62 11.78H153.135L155.715 18.44ZM168.848 15.875C168.848 18.485 166.973 20.135 164.633 20.135C162.308 20.135 160.538 18.485 160.538 15.875C160.538 13.28 162.368 11.645 164.693 11.645C167.033 11.645 168.848 13.28 168.848 15.875ZM161.933 15.875C161.933 17.96 163.208 18.935 164.633 18.935C166.058 18.935 167.453 17.96 167.453 15.875C167.453 13.805 166.088 12.83 164.678 12.83C163.238 12.83 161.933 13.805 161.933 15.875ZM177.932 11.78V20H176.567V18.785C176.042 19.64 175.037 20.12 173.942 20.12C172.052 20.12 170.567 18.95 170.567 16.595V11.78H171.917V16.415C171.917 18.08 172.832 18.935 174.212 18.935C175.622 18.935 176.567 18.065 176.567 16.295V11.78H177.932ZM179.637 12.425C179.622 10.61 180.942 9.41 182.907 9.41C184.872 9.41 186.222 10.595 186.222 12.5C186.222 14.69 184.707 15.59 182.607 15.59L182.562 17.015H181.377L181.317 14.645H181.752C183.462 14.645 184.917 14.315 184.917 12.5C184.917 11.3 184.137 10.55 182.922 10.55C181.692 10.55 180.927 11.255 180.927 12.425H179.637ZM182.862 19.16C182.862 19.685 182.457 20.09 181.962 20.09C181.437 20.09 181.032 19.685 181.032 19.16C181.032 18.635 181.437 18.23 181.962 18.23C182.457 18.23 182.862 18.635 182.862 19.16Z" fill="white"/>
</svg>
