<svg width="14" height="15" viewBox="0 0 14 15" fill="none" xmlns="http://www.w3.org/2000/svg">
<path id="Vector" d="M4.36709 13.9749C5.03092 14.6286 5.92417 14.9965 6.85577 15C7.78737 15.0035 8.68336 14.6423 9.35209 13.9937L11.7315 11.7831C13.0183 10.485 13.7402 8.73117 13.7402 6.90338C13.7402 5.07558 13.0183 3.32177 11.7315 2.02369C11.0944 1.38238 10.3368 0.873425 9.5022 0.526114C8.66763 0.178803 7.7726 0 6.86865 0C5.9647 0 5.06967 0.178803 4.2351 0.526114C3.40054 0.873425 2.64291 1.38238 2.00584 2.02369C0.716253 3.32711 -0.00489384 5.08805 2.49986e-05 6.92161C0.00494383 8.75516 0.735528 10.5122 2.03209 11.8087L4.36709 13.9749ZM3.33334 3.34619C3.79618 2.87997 4.3467 2.50994 4.95319 2.25743C5.55968 2.00492 6.21014 1.87492 6.86709 1.87492C7.52404 1.87492 8.1745 2.00492 8.78099 2.25743C9.38747 2.50994 9.938 2.87997 10.4008 3.34619C11.3373 4.28686 11.8654 5.55861 11.8708 6.88591C11.8762 8.21322 11.3584 9.48921 10.4296 10.4374L8.05459 12.6406C7.73098 12.9491 7.30007 13.1196 6.85298 13.1161C6.40589 13.1126 5.9777 12.9354 5.65896 12.6218L3.33334 10.4606C2.39524 9.51432 1.8689 8.23582 1.8689 6.90338C1.8689 5.57093 2.39524 4.29243 3.33334 3.34619ZM3.74209 6.87494C3.74209 6.6263 3.84086 6.38784 4.01668 6.21203C4.19249 6.03621 4.43095 5.93744 4.67959 5.93744H5.92959V4.68744C5.92959 4.4388 6.02836 4.20034 6.20418 4.02453C6.37999 3.84871 6.61845 3.74994 6.86709 3.74994C7.11573 3.74994 7.35419 3.84871 7.53 4.02453C7.70582 4.20034 7.80459 4.4388 7.80459 4.68744V5.93744H9.05459C9.30323 5.93744 9.54169 6.03621 9.7175 6.21203C9.89332 6.38784 9.99209 6.6263 9.99209 6.87494C9.99209 7.12358 9.89332 7.36204 9.7175 7.53785C9.54169 7.71367 9.30323 7.81244 9.05459 7.81244H7.80459V9.06244C7.80459 9.31108 7.70582 9.54954 7.53 9.72535C7.35419 9.90117 7.11573 9.99994 6.86709 9.99994C6.61845 9.99994 6.37999 9.90117 6.20418 9.72535C6.02836 9.54954 5.92959 9.31108 5.92959 9.06244V7.81244H4.67959C4.43095 7.81244 4.19249 7.71367 4.01668 7.53785C3.84086 7.36204 3.74209 7.12358 3.74209 6.87494Z" fill="#374957"/>
</svg>
