<svg width="14" height="15" viewBox="0 0 14 15" fill="none" xmlns="http://www.w3.org/2000/svg">
<g id="Vector">
<path d="M8.8409 1.51023V2.82277C10.0692 3.26509 11.1044 4.13544 11.7636 5.27999C12.4228 6.42455 12.6635 7.76961 12.4432 9.07745C12.2229 10.3853 11.5557 11.5717 10.5597 12.427C9.56363 13.2823 8.30278 13.7514 7 13.7514C5.69722 13.7514 4.43637 13.2823 3.44032 12.427C2.44426 11.5717 1.77712 10.3853 1.55682 9.07745C1.33652 7.76961 1.57723 6.42455 2.23642 5.27999C2.8956 4.13544 3.93082 3.26509 5.1591 2.82277V1.51023C3.59164 1.96281 2.23778 2.97755 1.34735 4.36722C0.45691 5.75689 0.0899908 7.4277 0.314293 9.07134C0.538595 10.715 1.33898 12.2205 2.56776 13.3102C3.79654 14.3998 5.37078 15 7 15C8.62922 15 10.2035 14.3998 11.4322 13.3102C12.661 12.2205 13.4614 10.715 13.6857 9.07134C13.91 7.4277 13.5431 5.75689 12.6527 4.36722C11.7622 2.97755 10.4084 1.96281 8.8409 1.51023Z" fill="white"/>
<path d="M7.6136 0H6.38632V5.00014H7.6136V0Z" fill="white"/>
</g>
</svg>
