<svg width="41" height="46" viewBox="0 0 41 46" fill="none" xmlns="http://www.w3.org/2000/svg">
<g id="Layer_1" clip-path="url(#clip0_856_10919)">
<path id="Vector" fill-rule="evenodd" clip-rule="evenodd" d="M40.4053 27.7016C40.4053 25.9047 37.6575 24.4484 34.2694 24.4484C31.8826 24.4484 29.8146 25.1718 28.801 26.2276L5.10873 39.731L5.28856 39.8386C2.32958 39.9626 0 41.2731 0 42.8739C0 44.5563 2.57208 45.92 5.74494 45.92C8.51728 45.92 10.8319 44.8778 11.3714 43.4923L12.513 44.1776L35.3333 30.9044C38.2147 30.6374 40.4067 29.3051 40.4067 27.7002L40.4053 27.7016Z" fill="#EAEAEA"/>
<g id="Group">
<path id="Vector_2" fill-rule="evenodd" clip-rule="evenodd" d="M29.5026 12.0771C29.523 12.1833 29.4603 12.3482 29.3405 12.4871C29.2206 12.6261 29.0666 12.7623 29.0121 12.8154C28.8732 12.9517 28.8636 12.9135 28.7233 13.0498C28.6402 12.9748 28.5585 12.8468 28.8269 12.6261C28.8568 12.558 28.8255 12.5103 29.0421 12.3645C28.9699 11.8604 29.4712 11.87 29.5026 12.0771Z" fill="#FCC39A"/>
<path id="Vector_3" fill-rule="evenodd" clip-rule="evenodd" d="M35.7952 14.848C35.4573 15.5741 35.1099 15.7635 34.8279 16.5114C34.2339 18.5426 33.3171 19.2415 33.2953 21.2005C32.7027 21.5602 31.4984 22.007 31.4875 21.1529C31.4371 18.2252 31.4276 15.2254 32.3294 12.5784C32.3294 12.5784 33.877 12.6942 35.2039 13.1315C35.1794 13.4067 35.8442 14.7431 35.7965 14.8494L35.7952 14.848Z" fill="#202D3F"/>
<path id="Vector_4" fill-rule="evenodd" clip-rule="evenodd" d="M37.8305 22.556C38.2269 24.06 36.5594 24.06 35.7625 22.9361C35.3878 22.4089 35.0786 21.4267 34.8361 20.7632C33.8075 17.9541 33.2817 16.4174 33.1373 13.1151C35.0513 14.3943 36.6807 13.4339 37.152 13.0647C37.3727 14.1968 37.3618 17.5917 37.3346 18.6639C37.2937 20.2333 37.573 21.4852 37.8305 22.5574V22.556Z" fill="#202D3F"/>
<path id="Vector_5" fill-rule="evenodd" clip-rule="evenodd" d="M32.4479 24.744C32.4479 24.744 32.1972 25.7521 32.6877 25.5341C32.8961 25.4415 32.8771 25.9074 32.8498 26.0613C32.813 26.2684 32.5228 26.4346 32.2286 26.5708C31.8839 26.6934 31.4848 27.0872 31.3594 27.1784C31.0161 27.4277 30.26 27.4087 29.9058 27.2833C29.7001 27.2098 29.5666 27.0817 29.6047 26.9196C29.6293 26.8637 29.6129 26.8419 29.6947 26.7806C29.7778 26.718 30.3227 26.2997 30.5516 26.1758C31.136 25.8583 31.3717 25.2276 31.4221 25.0832C31.4739 24.9388 31.6414 24.5001 31.6414 24.5001C31.6414 24.5001 31.9057 24.4102 32.4479 24.744Z" fill="#878DA1"/>
<path id="Vector_6" fill-rule="evenodd" clip-rule="evenodd" d="M32.5651 24.6146C32.5106 25.0859 32.9138 25.0001 32.8117 25.8298C32.7735 26.1363 32.1918 26.3107 31.9629 26.4401C31.6373 26.6226 31.5774 26.7602 31.4344 26.9305C31.3022 27.0872 31.1074 27.158 30.8554 27.1935C30.2682 27.2725 29.5775 27.188 29.6524 26.6826C29.681 26.4878 30.4439 26.154 30.7069 25.9987C31.3254 25.6527 31.3322 24.8516 31.3826 24.7072C31.4344 24.5628 31.6414 24.5015 31.6414 24.5015C31.6414 24.5015 32.0242 24.2808 32.5651 24.6146Z" fill="#2B374A"/>
<path id="Vector_7" fill-rule="evenodd" clip-rule="evenodd" d="M39.0007 26.6921C39.0007 26.6921 38.874 27.7234 39.3345 27.4469C39.5307 27.3297 39.5675 27.7942 39.5593 27.9509C39.5484 28.1607 39.28 28.361 39.0048 28.5326C38.6778 28.6961 38.3291 29.1348 38.216 29.241C37.9054 29.5299 37.152 29.6034 36.7856 29.5217C36.5717 29.474 36.4246 29.3623 36.4423 29.1974C36.46 29.1389 36.4423 29.1198 36.5145 29.0489C36.5894 28.9767 37.0798 28.4958 37.291 28.3446C37.8318 27.9591 37.9899 27.3038 38.0226 27.1553C38.0566 27.0055 38.1697 26.5504 38.1697 26.5504C38.1697 26.5504 38.4217 26.4292 38.9994 26.6948L39.0007 26.6921Z" fill="#878DA1"/>
<path id="Vector_8" fill-rule="evenodd" clip-rule="evenodd" d="M39.1015 26.5491C39.1043 27.0232 39.4952 26.8896 39.4925 27.7261C39.4925 28.0354 38.9353 28.2779 38.7242 28.4345C38.4231 28.6552 38.3809 28.7996 38.2582 28.9863C38.1465 29.1579 37.9613 29.2519 37.716 29.3173C37.1439 29.4672 36.4464 29.4672 36.46 28.9563C36.4654 28.7588 37.182 28.3364 37.4245 28.1498C38.0607 27.7248 37.8346 26.9183 37.8673 26.7698C37.9013 26.6199 38.1711 26.5518 38.1711 26.5518C38.1711 26.5518 38.5239 26.2861 39.1015 26.5518V26.5491Z" fill="#2B374A"/>
<path id="Vector_9" fill-rule="evenodd" clip-rule="evenodd" d="M33.253 20.3123C32.6986 18.5263 31.982 19.3478 31.4561 20.2061C31.5379 21.567 31.3417 24.778 31.1973 25.4374C31.5529 26.0423 32.8294 26.0055 32.8621 25.763C33.0732 23.2713 33.6481 22.6051 33.253 20.3123Z" fill="#202D3F"/>
<path id="Vector_10" fill-rule="evenodd" clip-rule="evenodd" d="M36.9545 21.6651C35.6249 20.3504 35.8238 21.9307 35.7638 22.9361C36.4763 24.0982 37.7079 26.6103 37.8359 27.5176C38.4013 27.9822 39.6519 27.5463 39.4367 27.188C38.795 25.2943 38.8822 23.4347 36.9545 21.6664V21.6651Z" fill="#202D3F"/>
<path id="Vector_11" fill-rule="evenodd" clip-rule="evenodd" d="M33.9424 6.9751C33.7176 8.63169 32.689 10.2815 32.3226 10.8564C31.6632 11.5539 31.0038 10.4858 30.9657 9.90002C31.2 9.19434 31.2504 8.56767 31.6537 6.58548C32.1359 4.20958 33.0637 4.22865 33.6059 4.39622C34.1495 4.56242 34.4137 5.43295 33.9424 6.97647V6.9751Z" fill="#B30000"/>
<path id="Vector_12" fill-rule="evenodd" clip-rule="evenodd" d="M32.2136 10.9668C31.4003 11.5321 30.0952 11.9735 29.6197 12.028C29.3514 11.9653 29.0598 11.6302 29.2001 11.321C29.7287 11.0158 29.8977 10.7011 30.9003 9.94365C31.6578 9.37148 32.8076 10.554 32.2136 10.9668Z" fill="#CC0202"/>
<path id="Vector_13" fill-rule="evenodd" clip-rule="evenodd" d="M35.4042 4.74774C36.0213 5.10195 36.9518 5.62372 37.4722 6.30761C37.8537 6.81167 37.4272 8.1413 37.4109 8.28843C36.9858 11.7583 37.4436 12.1752 37.1602 13.0212C36.7761 13.7786 33.5814 14.2554 32.3117 12.9503C31.7177 12.6343 32.8812 11.3836 32.1578 8.58678C32.0229 8.06229 31.7913 5.88665 32.497 4.91803C32.6591 4.69461 32.9983 4.42896 33.3675 4.45893C34.2598 4.52977 34.8661 4.40989 35.4015 4.74911L35.4042 4.74774Z" fill="#C4090E"/>
<g id="Group_2">
<path id="Vector_14" fill-rule="evenodd" clip-rule="evenodd" d="M34.1413 3.56793C34.1032 3.97254 34.1059 4.44118 33.8688 4.77087C34.0119 5.58418 34.9369 5.85801 35.4369 5.71632C35.6794 5.64821 35.7911 5.41525 35.7339 5.20409C35.7202 5.02017 35.4832 4.83217 35.4369 4.64962C35.3769 4.40576 34.3538 3.72869 34.1413 3.56793Z" fill="#EDA070"/>
<path id="Vector_15" fill-rule="evenodd" clip-rule="evenodd" d="M36.6589 2.09798C36.6398 2.33639 36.7079 2.56526 36.7461 2.79958C36.8074 2.99303 36.6507 3.07886 36.6412 3.2546C36.6371 3.32408 36.7106 3.41944 36.7188 3.51481C36.7474 3.84313 36.539 4.28316 36.475 4.56107C36.4123 4.82945 36.3987 5.06786 36.1276 5.17003C35.6521 5.3485 35.2039 4.92754 34.7462 4.73818C34.2925 4.55154 34.5268 3.98617 34.4042 3.59382C33.8211 1.73697 36.2679 0.850092 36.6616 2.09662L36.6589 2.09798Z" fill="#FCC39A"/>
<path id="Vector_16" fill-rule="evenodd" clip-rule="evenodd" d="M33.7135 3.1947L33.7244 3.23285C33.7203 3.21922 33.7163 3.20696 33.7135 3.1947Z" fill="#221F1F"/>
<path id="Vector_17" fill-rule="evenodd" clip-rule="evenodd" d="M35.0568 3.05575C34.9042 3.11978 34.7366 3.5026 34.9505 4.00802C34.9451 4.05161 34.0446 2.9059 34.1318 3.65518C34.1536 4.07886 34.1168 4.10474 34.0446 4.28866C33.8988 4.21101 33.7776 3.63747 33.6658 3.23694C33.5351 2.60891 33.7408 1.89369 34.0378 1.66345C34.8892 1.77108 35.0677 1.77925 35.3674 2.27105C35.4192 2.51627 35.2284 2.98355 35.0568 3.05575Z" fill="#4F2B0C"/>
<path id="Vector_18" fill-rule="evenodd" clip-rule="evenodd" d="M34.0922 3.5421C34.1413 3.80639 34.2762 4.00257 34.3906 3.97941C34.5064 3.95761 34.5282 3.71784 34.5663 3.49714C34.6454 3.17836 34.3715 2.99308 34.2121 3.02714C34.0963 3.05166 34.0432 3.27917 34.0922 3.5421Z" fill="#FCC39A"/>
<path id="Vector_19" fill-rule="evenodd" clip-rule="evenodd" d="M34.0364 1.6634C34.2816 0.517678 38.276 2.04212 36.4205 2.4876C36.1112 2.2383 35.6658 2.45082 35.2502 2.20833C34.892 2.04212 34.3961 1.8296 34.0364 1.6634Z" fill="#4F2B0C"/>
<path id="Vector_20" fill-rule="evenodd" clip-rule="evenodd" d="M36.9545 2.52985C37.2106 2.69877 37.6847 3.10475 37.8836 3.3309C37.2678 3.132 36.7992 3.52026 36.4573 3.66875C36.0567 3.84313 35.4764 3.1715 35.0895 2.97124C36.242 3.04072 36.7447 2.77234 36.9545 2.53121V2.52985Z" fill="#FF0000"/>
<path id="Vector_21" fill-rule="evenodd" clip-rule="evenodd" d="M37.0117 2.66338C36.4409 3.147 34.674 3.06526 33.6263 2.64022C33.4751 1.16209 34.5146 0.866464 35.4886 0.937306C36.569 1.01632 37.0676 1.71383 37.0117 2.66338Z" fill="#202D3F"/>
</g>
<path id="Vector_22" d="M34.4996 8.69435V8.45867L34.5555 8.11537C34.5868 7.92464 34.6181 7.73391 34.6495 7.54319C34.7394 7.5609 34.8279 7.57725 34.9192 7.59087C34.9056 7.67125 34.8933 7.75026 34.8797 7.82928C34.8252 7.8211 34.7721 7.81157 34.7176 7.80203C34.7067 7.87015 34.6958 7.9369 34.6849 8.00365C34.7298 8.01319 34.7762 8.02136 34.8225 8.02818C34.8102 8.10719 34.7966 8.18757 34.7843 8.26658C34.738 8.25841 34.6931 8.24887 34.6467 8.23934C34.6331 8.31835 34.6209 8.39737 34.6072 8.47502C34.6631 8.48728 34.7189 8.49818 34.7748 8.50908C34.7625 8.58809 34.7489 8.66711 34.7367 8.74612C34.6576 8.72977 34.5786 8.71207 34.4996 8.69299V8.69435ZM34.4996 7.74754L34.5378 7.68896C34.5309 7.62629 34.5173 7.57452 34.4996 7.53774V7.74754ZM34.4996 7.53774V7.74754L34.4519 7.8211C34.441 7.75162 34.4274 7.72029 34.407 7.71348C34.3429 7.69441 34.2694 7.87287 34.2489 8.12218C34.234 8.28974 34.2503 8.39328 34.3089 8.41099C34.332 8.4178 34.3593 8.38919 34.3838 8.34969C34.3933 8.41508 34.4029 8.48047 34.4124 8.5445C34.3824 8.59763 34.3266 8.66983 34.2653 8.65076C34.2094 8.63305 34.1686 8.56493 34.1468 8.45459V8.01319C34.1931 7.65354 34.3143 7.43284 34.4329 7.46826C34.4587 7.47507 34.4819 7.49959 34.4996 7.53774ZM34.4996 8.45867L34.4615 8.68482L34.4996 8.69435V8.45867ZM34.1468 7.50368L34.1631 7.40559L34.1468 7.40014V7.50368ZM34.1468 7.40014V7.50368L34.0691 7.96687C34.0378 8.15351 34.0064 8.34015 33.9765 8.52679L33.9397 8.51317V8.07177L33.9642 7.92736C33.9955 7.74072 34.0269 7.55409 34.0569 7.36745C34.0868 7.37835 34.1182 7.39061 34.1481 7.40151L34.1468 7.40014ZM34.1468 8.01319C34.1427 8.0418 34.14 8.07177 34.1372 8.1031C34.125 8.24479 34.1291 8.36331 34.1468 8.45459V8.01319ZM33.9383 7.57725L34.0078 7.34837L33.9383 7.32113V7.57725ZM33.9383 7.32113V7.57725C33.907 7.67806 33.877 7.77887 33.8457 7.87968C33.7926 8.05542 33.7381 8.23116 33.6849 8.4069C33.6413 8.38783 33.5991 8.3674 33.5569 8.34832C33.5678 8.15351 33.5773 7.96006 33.5882 7.76525C33.5991 7.57043 33.61 7.37698 33.6195 7.18217C33.6563 7.19988 33.6945 7.21623 33.7313 7.23394C33.7176 7.41377 33.7054 7.59496 33.6931 7.77478C33.6849 7.89603 33.674 8.01864 33.6645 8.13989C33.6645 8.13989 33.6659 8.13989 33.6672 8.14125C33.6972 8.02818 33.7258 7.91647 33.7558 7.80203C33.7994 7.63446 33.8457 7.46826 33.8906 7.30069L33.9383 7.32113ZM33.9383 8.07041L33.8689 8.48319C33.892 8.49273 33.9152 8.50227 33.9383 8.5118V8.07041ZM33.3648 8.25296L33.4288 8.28429C33.4193 8.12763 33.4111 7.9696 33.4029 7.81293C33.4683 7.78159 33.5228 7.67397 33.5419 7.46009C33.561 7.23666 33.5024 7.12359 33.4166 7.08L33.3662 7.05411V7.28707L33.3825 7.29524C33.422 7.31568 33.4411 7.36608 33.4343 7.45055C33.4261 7.53774 33.4043 7.59359 33.3662 7.59768V8.25296H33.3648ZM33.3648 7.05411V7.28707L33.3444 7.27617C33.328 7.37562 33.3117 7.47371 33.2953 7.5718C33.3076 7.57861 33.3212 7.58542 33.3335 7.59087C33.3444 7.59632 33.3553 7.59904 33.3648 7.59768V8.25296L33.3171 8.22844C33.3117 8.08812 33.3076 7.9478 33.3021 7.80748C33.2871 7.79931 33.2722 7.79249 33.2585 7.78432C33.2367 7.91102 33.2163 8.03771 33.1945 8.16441L33.1359 8.13308V7.83064L33.1822 7.55681C33.2136 7.3729 33.2435 7.18898 33.2749 7.00643C33.3048 7.02278 33.3348 7.03913 33.3648 7.05411ZM33.1359 7.17808L33.1455 7.18353C33.1577 7.1086 33.17 7.03231 33.1836 6.95602L33.1373 6.93014V7.17945L33.1359 7.17808ZM32.7735 6.95602L32.8103 6.89881C32.8008 6.84704 32.7885 6.80072 32.7735 6.76121V6.95466V6.95602ZM33.1359 6.92878V7.17808C33.0869 7.15084 33.0378 7.12087 32.9888 7.09226C32.9779 7.15629 32.9684 7.22032 32.9575 7.28571C33.001 7.31159 33.046 7.33748 33.0896 7.36336C33.0773 7.43965 33.0651 7.51594 33.0515 7.59087C33.0065 7.56498 32.9629 7.5391 32.9179 7.51322C32.9043 7.58951 32.8921 7.66443 32.8798 7.73936C32.9329 7.77206 32.9874 7.80203 33.0419 7.83336C33.0297 7.90965 33.0174 7.98458 33.0038 8.05951C32.9261 8.01592 32.8498 7.9696 32.7735 7.92328V7.68759L32.8294 7.35246C32.8607 7.16991 32.8907 6.98736 32.922 6.80481C32.9929 6.8484 33.0637 6.88927 33.1359 6.93014V6.92878ZM33.1359 7.83064L33.0896 8.10719L33.1359 8.13308V7.83064ZM32.5242 7.78432C32.6264 7.85244 32.7054 7.72029 32.7231 7.51049C32.7354 7.37562 32.7245 7.29388 32.6891 7.19852C32.6782 7.16855 32.6673 7.13858 32.6564 7.10724C32.6278 7.0255 32.6114 6.99281 32.6155 6.94376C32.6196 6.88927 32.6387 6.85521 32.6686 6.87565C32.6959 6.89336 32.7136 6.95057 32.7299 7.02278L32.7735 6.95602V6.76257C32.7504 6.69991 32.7231 6.65495 32.6932 6.63451C32.6073 6.57593 32.5229 6.69309 32.5052 6.90017C32.4929 7.04458 32.5092 7.14266 32.5419 7.23803C32.5515 7.26663 32.5624 7.29661 32.5733 7.32521C32.5992 7.39469 32.6155 7.43011 32.6114 7.48188C32.606 7.54591 32.5828 7.57043 32.5528 7.55C32.5201 7.5282 32.4915 7.44782 32.4766 7.34974C32.4479 7.38652 32.418 7.42194 32.388 7.45736C32.418 7.65081 32.4697 7.75026 32.5242 7.78704V7.78432ZM32.7735 7.68623V7.92191L32.7368 7.90012L32.7735 7.68623Z" fill="white"/>
<path id="Vector_23" fill-rule="evenodd" clip-rule="evenodd" d="M35.2707 11.6152C35.1576 11.7964 36.5785 12.6846 36.7352 12.201C37.2352 11.2324 38.3713 6.9792 37.5403 6.23128C37.1057 5.84029 36.2829 5.70269 35.7625 6.42882C35.0364 7.95871 35.5936 10.2379 35.2693 11.6138L35.2707 11.6152Z" fill="#FF0000"/>
<path id="Vector_24" fill-rule="evenodd" clip-rule="evenodd" d="M32.0869 13.3713C34.2081 14.596 36.475 14.8725 37.2025 13.5143C37.1725 13.3713 37.1807 13.1042 37.1507 12.9612C36.7011 13.7214 34.4165 13.9148 32.1918 12.8413C32.1823 12.9762 32.0951 13.2377 32.0869 13.3713Z" fill="#B30000"/>
<g id="Group_3">
<path id="Vector_25" fill-rule="evenodd" clip-rule="evenodd" d="M29.6429 11.8005C29.3841 12.0103 29.647 12.1084 29.3841 12.4136C29.3037 12.4694 29.1729 12.1493 28.5653 12.5811C28.4304 12.6193 27.9209 12.0267 28.0054 11.904C28.2002 11.7215 28.8487 11.6084 29.2942 11.3741C29.4454 11.3332 29.632 11.4368 29.6415 11.7991L29.6429 11.8005Z" fill="#FCC39A"/>
<path id="Vector_26" fill-rule="evenodd" clip-rule="evenodd" d="M28.5966 12.5348C28.4713 12.7051 28.4045 12.9026 28.35 13.1329C28.3133 13.2909 28.1184 13.2187 28.1525 13.0593C28.2016 12.8318 28.252 12.6261 28.3637 12.4531C28.4182 12.295 28.6566 12.3877 28.5966 12.5335V12.5348Z" fill="#FCC39A"/>
<path id="Vector_27" fill-rule="evenodd" clip-rule="evenodd" d="M28.3977 12.4245C28.2724 12.5948 28.2057 12.7923 28.1512 13.0225C28.1144 13.1806 27.9196 13.1084 27.9536 12.949C28.0027 12.7215 28.0531 12.5157 28.1648 12.3427C28.2193 12.1847 28.4577 12.2773 28.3977 12.4231V12.4245Z" fill="#FCC39A"/>
<path id="Vector_28" fill-rule="evenodd" clip-rule="evenodd" d="M28.2629 12.201C28.1375 12.3713 28.0708 12.5688 28.0163 12.7991C27.9795 12.9571 27.7847 12.8849 27.8187 12.7255C27.8678 12.498 27.9182 12.2923 28.0299 12.1193C28.0844 11.9612 28.3228 12.0539 28.2629 12.1997V12.201Z" fill="#FCC39A"/>
<path id="Vector_29" fill-rule="evenodd" clip-rule="evenodd" d="M28.1798 12.0512C28.0544 12.2215 27.9877 12.419 27.9332 12.6492C27.8964 12.8073 27.7016 12.7351 27.7356 12.5757C27.7847 12.3482 27.8351 12.1424 27.9468 11.9694C28.0013 11.8114 28.2397 11.904 28.1798 12.0498V12.0512Z" fill="#FCC39A"/>
</g>
<g id="Group_4">
<path id="Vector_30" fill-rule="evenodd" clip-rule="evenodd" d="M9.45999 28.9577L9.48451 17.8424L34.129 3.79547L34.0623 15.0606L9.45999 28.9577Z" fill="#D9D9D9"/>
<path id="Vector_31" fill-rule="evenodd" clip-rule="evenodd" d="M3.02301 14.0143L9.48726 17.8479L34.1359 3.79953L27.6103 0L3.02301 14.0143Z" fill="#EBEBEB"/>
<path id="Vector_32" fill-rule="evenodd" clip-rule="evenodd" d="M9.46272 28.9617L9.48588 17.8465L3.02164 14.0143L3.07477 25.0914L9.46272 28.9617Z" fill="#999999"/>
<path id="Vector_33" fill-rule="evenodd" clip-rule="evenodd" d="M11.2324 27.3528L24.9728 19.5249L24.9987 10.0199L11.2583 17.8506L11.2324 27.3528Z" fill="#999999"/>
<path id="Vector_34" fill-rule="evenodd" clip-rule="evenodd" d="M24.9715 19.5194L24.9919 10.0226L18.5753 13.6805L18.5835 15.6491L24.9715 19.5194Z" fill="#EBEBEB"/>
<path id="Vector_35" fill-rule="evenodd" clip-rule="evenodd" d="M11.2528 19.8314L18.5876 15.6504L18.5754 13.6805L11.2583 17.8506L11.2528 19.8314Z" fill="#CFCDCD"/>
<g id="Group_5">
<path id="Vector_36" fill-rule="evenodd" clip-rule="evenodd" d="M15.3248 24.7671L15.254 15.5742L11.2583 17.8506L11.2351 22.3953L15.3248 24.7671Z" fill="#9DADCC"/>
<path id="Vector_37" fill-rule="evenodd" clip-rule="evenodd" d="M15.6218 24.5982L11.2365 22.0439L11.246 22.4008L15.3248 24.7672L15.6218 24.5982Z" fill="white"/>
<path id="Vector_38" fill-rule="evenodd" clip-rule="evenodd" d="M15.6218 24.5982L15.551 15.4039L15.254 15.5742L15.3248 24.7672L15.6218 24.5982Z" fill="white"/>
</g>
<g id="Group_6">
<path id="Vector_39" fill-rule="evenodd" clip-rule="evenodd" d="M18.2075 20.9213L18.1544 13.9203L14.1301 16.2144L14.1178 18.5481L18.2075 20.9213Z" fill="#9DADCC"/>
<path id="Vector_40" fill-rule="evenodd" clip-rule="evenodd" d="M18.5059 20.751L14.1205 18.1966L13.8222 18.3669L18.2075 20.9213L18.5059 20.751Z" fill="white"/>
<path id="Vector_41" fill-rule="evenodd" clip-rule="evenodd" d="M18.5059 20.751L18.4514 13.7513L18.1544 13.9203L18.2075 20.9213L18.5059 20.751Z" fill="white"/>
<path id="Vector_42" fill-rule="evenodd" clip-rule="evenodd" d="M14.1205 18.1966L14.1042 16.228L13.8072 16.3983L13.8222 18.3669L14.1205 18.1966Z" fill="white"/>
</g>
<path id="Vector_43" fill-rule="evenodd" clip-rule="evenodd" d="M9.80057 24.7998L10.9286 24.1582L10.9395 20.8109L9.81147 21.4539L9.80057 24.7998Z" fill="#191919"/>
<path id="Vector_44" fill-rule="evenodd" clip-rule="evenodd" d="M9.9082 24.6323L10.791 24.1296L10.7992 21.5071L9.91638 22.0111L9.9082 24.6323Z" fill="#00CCFF"/>
<g id="Group_7">
<path id="Vector_45" fill-rule="evenodd" clip-rule="evenodd" d="M20.5439 19.5889L20.4894 12.5893L16.4651 14.8835L16.4542 17.2171L20.5439 19.5889Z" fill="#9DADCC"/>
<path id="Vector_46" fill-rule="evenodd" clip-rule="evenodd" d="M20.8409 19.42L16.4556 16.8656L16.1586 17.0359L20.5439 19.5889L20.8409 19.42Z" fill="white"/>
<path id="Vector_47" fill-rule="evenodd" clip-rule="evenodd" d="M20.8409 19.42L20.7878 12.4203L20.4894 12.5893L20.5439 19.5889L20.8409 19.42Z" fill="white"/>
<path id="Vector_48" fill-rule="evenodd" clip-rule="evenodd" d="M16.4555 16.8656L16.4406 14.897L16.1422 15.0673L16.1586 17.0359L16.4555 16.8656Z" fill="white"/>
</g>
<path id="Vector_49" fill-rule="evenodd" clip-rule="evenodd" d="M25.9374 19.6598L25.9305 17.5631L26.2234 17.3969L26.2602 10.8332L26.5027 10.9722L25.9483 10.6548L25.9578 8.56224L34.1835 3.84314L34.7612 4.181L34.4778 15.1627L26.4741 19.9731L25.9374 19.6598Z" fill="#4C4C4C"/>
<path id="Vector_50" fill-rule="evenodd" clip-rule="evenodd" d="M25.9578 8.56224L34.1835 3.84314L34.7612 4.181L34.7244 5.59237L26.5082 8.88512L25.9578 8.56224Z" fill="#F7F7F7"/>
<path id="Vector_51" fill-rule="evenodd" clip-rule="evenodd" d="M26.4741 19.9731L34.7012 15.288L34.7612 4.18097L26.5082 8.88509L26.5027 10.9722L26.8133 10.7951L26.7834 17.7103L26.4796 17.8833L26.4741 19.9731Z" fill="#CCCCCC"/>
<path id="Vector_52" fill-rule="evenodd" clip-rule="evenodd" d="M21.8926 15.0605L24.4701 13.5933L24.4892 10.1153L21.9035 11.588L21.8926 15.0605Z" fill="#999999"/>
<g id="Group_8">
<path id="Vector_53" fill-rule="evenodd" clip-rule="evenodd" d="M9.55672 28.9958C9.54445 25.0328 9.56216 21.2918 9.57715 17.8983L25.7671 8.63989L26.346 8.97775L26.0627 19.9595L10.0935 29.3091L9.55672 28.9958Z" fill="#BABABA"/>
<path id="Vector_54" fill-rule="evenodd" clip-rule="evenodd" d="M9.57715 17.8969L25.7671 8.63989L26.346 8.97775L26.3093 10.3891L10.1289 18.2211L9.57715 17.8969Z" fill="#F7F7F7"/>
<path id="Vector_55" fill-rule="evenodd" clip-rule="evenodd" d="M10.0935 29.3091L26.2847 20.0848L26.3461 8.97913L10.1289 18.2225C10.118 21.642 10.1057 25.4892 10.0935 29.3105V29.3091Z" fill="#CCCCCC"/>
<path id="Vector_56" fill-rule="evenodd" clip-rule="evenodd" d="M12.1097 23.3857L15.6382 21.3749L15.6463 19.8532L12.1138 21.8667C12.1125 22.3354 12.1111 22.8626 12.1084 23.3857H12.1097Z" fill="#191919"/>
<path id="Vector_57" fill-rule="evenodd" clip-rule="evenodd" d="M12.3754 22.9866L14.7526 21.6311L14.7581 20.6052L12.3781 21.9621C12.3781 22.2782 12.3754 22.6324 12.3754 22.9852V22.9866Z" fill="#00CCFF"/>
</g>
</g>
<path id="Vector_58" fill-rule="evenodd" clip-rule="evenodd" d="M5.37847 40.9202C5.73812 41.1736 5.52015 41.9365 5.14006 42.0646C4.27907 42.3561 3.62924 42.7171 3.06115 42.9024C2.85952 42.9678 2.37998 43.0278 2.17836 42.6545C2.12795 42.5101 2.44401 41.9801 2.44401 41.9801C3.45622 42.0891 4.93162 40.6723 5.37847 40.9202Z" fill="#878DA1"/>
<path id="Vector_59" fill-rule="evenodd" clip-rule="evenodd" d="M4.19734 40.9816C4.64282 41.0946 5.02154 40.7813 5.1714 40.8045C5.28992 40.8222 5.45477 40.9448 5.48882 41.13C5.54604 41.4407 5.37575 41.7513 5.09783 41.8889C4.80085 42.0374 4.46163 41.9692 3.95757 42.1722C3.68101 42.2839 3.00394 42.679 2.74782 42.6817C2.4917 42.6858 2.27373 42.5183 2.24921 42.3289C2.26828 41.1791 3.34179 40.7649 4.19597 40.9816H4.19734Z" fill="#2B374A"/>
<path id="Vector_60" fill-rule="evenodd" clip-rule="evenodd" d="M5.02972 36.148C5.10328 35.9328 5.40163 35.1017 5.4425 34.8007C6.34164 31.3294 6.53236 30.2355 6.24764 28.0817C5.52697 27.8378 3.80771 28.5775 3.15788 27.9291C1.82007 29.2682 3.51481 34.1045 3.1102 35.7856C3.40173 36.2761 4.3867 36.7106 5.02972 36.148Z" fill="#202D3F"/>
<path id="Vector_61" fill-rule="evenodd" clip-rule="evenodd" d="M2.30505 41.9338C2.91946 42.5115 3.56521 42.3221 3.93712 41.502C3.95211 40.1982 4.62374 37.697 5.07194 36.0213C5.33351 34.986 3.67147 34.4451 3.0952 35.7856C2.38271 37.2747 2.37453 41.3303 2.30505 41.9338Z" fill="#202D3F"/>
<path id="Vector_62" fill-rule="evenodd" clip-rule="evenodd" d="M8.99273 42.2594C9.35238 42.5128 9.13305 43.2757 8.75432 43.4038C7.89333 43.6953 7.2435 44.0563 6.67541 44.2416C6.47378 44.307 5.99424 44.3669 5.79262 43.9936C5.74221 43.8492 6.05827 43.3193 6.05827 43.3193C7.07048 43.4283 8.54588 42.0115 8.99273 42.2594Z" fill="#878DA1"/>
<path id="Vector_63" fill-rule="evenodd" clip-rule="evenodd" d="M7.81159 42.3207C8.2598 42.4242 8.6358 42.1204 8.78566 42.1436C8.90418 42.1613 9.06902 42.2839 9.10308 42.4692C9.1603 42.7798 8.99001 43.0904 8.71209 43.228C8.41511 43.3765 8.07589 43.3084 7.57182 43.5114C7.29527 43.6231 6.61819 44.0182 6.36208 44.0209C6.10596 44.025 5.88799 43.8574 5.86346 43.668C5.88254 42.5182 6.81709 42.0918 7.81023 42.3207H7.81159Z" fill="#2B374A"/>
<path id="Vector_64" fill-rule="evenodd" clip-rule="evenodd" d="M7.75163 37.0145C7.79659 36.7938 7.90557 36.2952 7.90694 35.9927C8.34561 32.4684 8.23253 30.5489 7.66308 28.4536C6.91108 28.2928 4.7586 28.9372 4.0243 28.3691C2.50394 30.2968 6.0133 34.407 5.64683 36.8714C6.0024 37.3224 7.1849 37.6398 7.75163 37.0145Z" fill="#202D3F"/>
<path id="Vector_65" fill-rule="evenodd" clip-rule="evenodd" d="M5.94111 43.0686C6.64407 43.574 7.17266 43.2103 7.40425 42.3561C7.20126 41.0592 7.62631 38.5103 7.78979 36.7951C7.87698 35.7379 5.99424 35.4777 5.64821 36.8728C5.45612 38.1751 5.91114 42.461 5.94247 43.07L5.94111 43.0686Z" fill="#202D3F"/>
<path id="Vector_66" fill-rule="evenodd" clip-rule="evenodd" d="M2.92491 19.059C-0.181198 20.0984 4.53518 24.0805 5.30898 24.7276C5.83076 25.0682 6.61001 24.3652 6.20676 23.5819C5.3267 22.007 4.10332 18.8505 2.92491 19.059Z" fill="#B30000"/>
<path id="Vector_67" fill-rule="evenodd" clip-rule="evenodd" d="M7.71893 28.4713C7.0473 29.0557 3.74775 29.7124 2.84725 28.4618C2.85815 28.316 2.81591 28.0517 2.82545 27.9073C3.84583 28.6484 6.50237 28.7179 7.63856 28.0749C7.6658 28.207 7.69169 28.3391 7.71893 28.4713Z" fill="#B30000"/>
<path id="Vector_68" fill-rule="evenodd" clip-rule="evenodd" d="M5.68364 20.0848C5.80625 20.1188 6.54735 20.4717 7.0882 21.1706C7.48327 21.6855 7.46148 22.8353 7.44649 22.9865C7.39745 23.4756 7.84157 27.8037 7.63858 28.0762C7.40698 28.801 3.86765 28.7873 2.82547 27.9086C2.47808 27.5381 2.64428 26.2275 2.26147 24.1554C1.93587 22.3939 1.36642 18.9445 3.37449 19.1788C4.28861 19.2824 5.53242 20.0439 5.68364 20.0861V20.0848Z" fill="#C4090E"/>
<path id="Vector_69" fill-rule="evenodd" clip-rule="evenodd" d="M6.19996 20.6175C3.16878 21.2482 7.57455 25.4387 8.36742 26.0627C8.96685 26.4632 9.54992 25.5981 9.12215 24.8284C8.19713 23.2794 7.37156 20.3736 6.19996 20.6175Z" fill="#FF0000"/>
<g id="Group_9">
<path id="Vector_70" fill-rule="evenodd" clip-rule="evenodd" d="M6.30212 16.6981L6.22991 17.5155L5.48199 17.431L5.57872 16.5864L6.30212 16.6981Z" fill="#C6C6C6"/>
<path id="Vector_71" d="M6.22991 16.7866C6.23945 17.0223 6.22991 17.2471 6.17269 17.4432L5.89342 17.4119V17.54L6.2558 17.5808C6.31301 17.3506 6.36206 17.0127 6.36887 16.6776C6.19177 16.6054 6.03782 16.5686 5.89478 16.5468V16.679C5.98878 16.6953 6.09504 16.7239 6.23127 16.7852L6.22991 16.7866ZM5.89342 17.4119L5.55283 17.3737C5.58008 17.1353 5.60733 16.8969 5.63457 16.6585C5.71768 16.6626 5.79805 16.664 5.89205 16.6803V16.5482C5.764 16.5291 5.64275 16.5223 5.5215 16.5128C5.48472 16.837 5.44657 17.1612 5.40979 17.4868L5.89205 17.5413V17.4133L5.89342 17.4119Z" fill="#1D1D1B"/>
<path id="Vector_72" fill-rule="evenodd" clip-rule="evenodd" d="M5.98877 17.7293C6.18495 17.8111 6.22037 17.9827 6.22718 18.0767C6.28985 19.0535 5.78034 19.8164 5.38526 18.8941C5.21633 18.4991 4.88529 18.1816 5.24903 17.8506C5.52422 17.5999 5.94927 17.7334 5.98877 17.7293Z" fill="#4C4C4C"/>
<path id="Vector_73" fill-rule="evenodd" clip-rule="evenodd" d="M5.63186 15.8248C5.74493 16.0264 5.87299 16.2253 5.95609 16.4406C6.01331 16.5904 6.03647 16.6354 5.99833 16.7825C5.93838 17.01 5.8907 17.0632 6.07598 17.2103C6.25717 17.3533 6.14273 17.9282 6.10868 18.1898C6.08143 18.3969 6.08688 18.6339 5.92612 18.7797C5.5256 19.1448 4.99838 19.0454 4.52429 18.9568C4.05565 18.8696 3.00802 17.8751 2.8132 17.5277C2.59523 16.7853 2.68787 16.1 3.87854 15.4434C4.39623 15.1573 5.34986 15.3194 5.63322 15.8234L5.63186 15.8248Z" fill="#FCC39A"/>
<path id="Vector_74" fill-rule="evenodd" clip-rule="evenodd" d="M5.40979 18.0209C5.40979 18.0209 5.58962 19.1339 5.49698 19.9949C4.69321 19.8505 3.5761 20.5276 3.24097 19.8055C3.32543 19.5413 3.57065 18.7947 3.31317 17.7716C3.23279 17.4501 5.21498 17.0959 5.40979 18.0209Z" fill="#EDA070"/>
<path id="Vector_75" fill-rule="evenodd" clip-rule="evenodd" d="M5.55965 16.9678C5.54194 17.0645 5.41933 17.2239 5.69043 17.3915L5.38527 17.5291C5.33078 17.4473 5.39072 17.371 5.31307 17.3329C5.08011 17.2185 4.94252 17.7743 4.77904 18.2361C4.52292 18.9595 3.54477 18.8178 3.47256 18.7797C3.0952 18.5767 2.74917 18.3042 2.64699 17.7988C2.52847 17.2116 2.22331 16.5877 2.56525 16.0128C3.15514 15.0224 4.45617 14.5701 5.62368 15.5864C6.22583 16.1095 5.66183 16.412 5.55829 16.9692L5.55965 16.9678Z" fill="#4C4C4C"/>
<path id="Vector_76" fill-rule="evenodd" clip-rule="evenodd" d="M4.97522 17.3724L6.3321 16.6858L6.3103 16.9365L5.01336 17.5372L4.96977 18.0359L4.70956 18.1557L4.97522 17.3724Z" fill="#333333"/>
<path id="Vector_77" fill-rule="evenodd" clip-rule="evenodd" d="M4.91664 17.6708C4.99565 17.9337 5.24087 18.2825 5.35258 18.2416C5.62914 18.0931 5.45748 17.9201 5.37847 17.6571C5.29809 17.3942 5.34168 17.2198 5.22452 17.213C5.00519 17.2035 4.83762 17.4065 4.91664 17.6708Z" fill="#FCC39A"/>
</g>
<g id="Group_10">
<path id="Vector_78" fill-rule="evenodd" clip-rule="evenodd" d="M5.62505 15.585C5.17548 15.6368 4.43982 15.7757 4.17825 15.961C4.87032 15.9065 4.99837 16.3861 5.388 16.4773C5.88116 16.5918 7.00781 16.3752 6.95604 16.1463C6.83071 15.5864 6.09777 15.5319 5.62641 15.585H5.62505Z" fill="#FF0000"/>
<path id="Vector_79" fill-rule="evenodd" clip-rule="evenodd" d="M2.59251 17.3138C3.3268 17.6381 5.11963 17.0168 6.06917 16.2608C5.77491 14.6954 4.61556 14.7063 3.63605 15.0755C2.54891 15.4856 1.989 16.5441 2.59387 17.3138H2.59251Z" fill="#202D3F"/>
</g>
<path id="Vector_80" d="M3.80907 22.7699V22.5124L3.83359 22.1991C3.84857 22.0111 3.86356 21.8217 3.87855 21.6337C3.91533 21.6446 3.95211 21.6542 3.98889 21.6637C3.97391 21.8531 3.95892 22.0424 3.94394 22.2304C3.92895 22.4184 3.91397 22.6078 3.89898 22.7958C3.86901 22.7876 3.83904 22.7795 3.80907 22.7699ZM3.80907 21.7141L3.8295 21.6188L3.80907 21.6133V21.7141ZM4.19733 22.8939C4.26 22.9089 4.3104 22.8312 4.33493 22.7754C4.31994 22.7113 4.30495 22.6473 4.28997 22.5833C4.26953 22.6255 4.24501 22.6569 4.22185 22.6514C4.16191 22.6378 4.13603 22.5356 4.13603 22.368C4.13603 22.1174 4.19324 21.9335 4.25864 21.9471C4.27907 21.9512 4.29542 21.9825 4.31177 22.0506C4.33629 22.0057 4.36081 21.9593 4.38669 21.913C4.36081 21.7863 4.31585 21.7114 4.26408 21.7019C4.13194 21.676 4.02295 21.9471 4.02295 22.3599C4.02295 22.6732 4.09243 22.8707 4.19733 22.8939ZM4.39623 22.9116C4.48887 22.9266 4.58287 22.9402 4.67551 22.9498C4.68096 22.8694 4.68777 22.7904 4.69322 22.71C4.63736 22.7045 4.58014 22.6977 4.52429 22.6909C4.5311 22.6119 4.53655 22.5329 4.54336 22.4525C4.58968 22.458 4.636 22.4634 4.68232 22.4675C4.68777 22.3871 4.69458 22.3067 4.70003 22.2264C4.65371 22.2236 4.60739 22.2182 4.56107 22.2127C4.56652 22.1446 4.57061 22.0765 4.57606 22.0084C4.63055 22.0138 4.68504 22.0179 4.73954 22.022C4.74499 21.9416 4.7518 21.8613 4.75725 21.7809C4.66597 21.7754 4.57606 21.7673 4.48478 21.7564C4.4698 21.9498 4.45481 22.1433 4.43982 22.3353C4.42484 22.5274 4.40985 22.7195 4.39487 22.9102L4.39623 22.9116ZM3.80907 21.6133V21.7141C3.77773 21.864 3.74504 22.0138 3.7137 22.1623C3.67556 22.3422 3.63741 22.522 3.59927 22.7004C3.55431 22.6855 3.51072 22.6691 3.46576 22.6528C3.45895 22.458 3.45214 22.2631 3.44669 22.0697C3.44124 21.8749 3.43443 21.6801 3.42761 21.4866C3.46576 21.5002 3.50391 21.5152 3.54341 21.5275C3.54614 21.7087 3.54886 21.8885 3.55159 22.0697C3.55295 22.1909 3.55431 22.3135 3.55431 22.4362C3.55431 22.4362 3.55567 22.4362 3.55704 22.4362C3.57747 22.3204 3.59654 22.2073 3.61562 22.0915C3.64559 21.9212 3.67556 21.7509 3.70689 21.5806C3.74095 21.5915 3.77501 21.6024 3.8077 21.6119L3.80907 21.6133ZM3.80907 22.5124L3.78863 22.7631L3.80907 22.7699V22.5124ZM3.20147 22.4266V21.9239C3.24506 21.9239 3.2655 21.864 3.2655 21.77C3.2655 21.6855 3.24234 21.6378 3.20147 21.6201V21.3967L3.21645 21.4022C3.30637 21.4389 3.37448 21.5466 3.37448 21.77C3.37448 21.9934 3.32953 22.0969 3.26686 22.1337C3.28866 22.289 3.31045 22.4457 3.33361 22.601C3.29547 22.586 3.25596 22.571 3.21782 22.5547L3.20147 22.4253V22.4266ZM2.38816 22.1814C2.49578 22.24 2.56254 22.1024 2.56254 21.8912C2.56254 21.7564 2.54483 21.6746 2.50123 21.5833C2.48761 21.5547 2.47399 21.5248 2.46036 21.4948C2.42494 21.4158 2.40451 21.3844 2.40451 21.3368C2.40451 21.2823 2.42085 21.2455 2.45219 21.2632C2.4808 21.2795 2.50396 21.334 2.52575 21.4049C2.54891 21.3613 2.57207 21.3177 2.59523 21.2741C2.55845 21.1433 2.50804 21.0493 2.45627 21.0207C2.365 20.9703 2.29143 21.0929 2.29143 21.3013C2.29143 21.4457 2.31595 21.5438 2.35819 21.6337C2.37045 21.6624 2.38407 21.6896 2.39633 21.7182C2.42767 21.785 2.44674 21.819 2.44674 21.8708C2.44674 21.9348 2.4263 21.9607 2.39497 21.943C2.36091 21.9239 2.32549 21.8463 2.30097 21.7495C2.27509 21.7877 2.2492 21.8258 2.22195 21.864C2.26827 22.0533 2.32822 22.1487 2.38543 22.18L2.38816 22.1814ZM3.20147 21.3967V21.6201C3.18785 21.6147 3.17558 21.6092 3.16196 21.6038C3.15379 21.7032 3.14561 21.804 3.1388 21.9035C3.15242 21.9089 3.16469 21.9144 3.17831 21.9198C3.18648 21.9239 3.19466 21.9253 3.20283 21.9253V22.428L3.16741 22.1392C3.15242 22.1324 3.13608 22.1269 3.12109 22.1201C3.11019 22.2482 3.10066 22.3762 3.09112 22.5043C3.05434 22.4879 3.01755 22.4729 2.98077 22.4566C2.99576 22.2713 3.01074 22.086 3.02573 21.9008C3.04071 21.7155 3.0557 21.5302 3.07069 21.3449C3.11428 21.364 3.15924 21.3831 3.20283 21.4008L3.20147 21.3967ZM2.61022 22.2781C2.70286 22.3244 2.79686 22.3708 2.8895 22.413C2.89494 22.3367 2.90176 22.2604 2.90721 22.1841C2.85135 22.1582 2.79413 22.131 2.73828 22.1037C2.74509 22.0275 2.75054 21.9512 2.75735 21.8749C2.80367 21.898 2.84999 21.9198 2.89631 21.9416C2.90176 21.8653 2.90857 21.7891 2.91402 21.7128C2.8677 21.691 2.82138 21.6705 2.77506 21.6474C2.78051 21.582 2.7846 21.5179 2.79005 21.4526C2.84454 21.4784 2.89903 21.5043 2.95352 21.5288C2.95897 21.4526 2.96579 21.3763 2.97123 21.2986C2.87996 21.2577 2.79005 21.2155 2.69877 21.1706C2.68378 21.3558 2.6688 21.5397 2.65381 21.725C2.63883 21.9089 2.62384 22.0942 2.60886 22.2795L2.61022 22.2781Z" fill="white"/>
<g id="Group_11">
<path id="Vector_81" fill-rule="evenodd" clip-rule="evenodd" d="M11.7092 27.2902C11.7787 27.2084 11.9476 27.1539 12.1302 27.1594C12.3127 27.1648 12.5171 27.2002 12.592 27.2098C12.7854 27.2329 12.7609 27.2643 12.9557 27.2888C12.9489 27.4005 12.9012 27.5449 12.5607 27.4741C12.4885 27.4931 12.4721 27.5476 12.2214 27.47C11.874 27.8405 11.5675 27.4455 11.7092 27.2915V27.2902Z" fill="#FCC39A"/>
<path id="Vector_82" fill-rule="evenodd" clip-rule="evenodd" d="M11.3005 27.2901C11.6193 27.3283 11.6833 27.1907 11.8931 27.2615C12.3522 27.5735 12.6288 27.474 12.8631 27.6661C12.9012 27.658 13.0021 27.6334 13.0211 27.6293C13.0593 27.9427 12.7228 28.3119 12.1792 28.4086C11.8754 28.3868 11.5634 28.1252 11.4831 28.0217C11.3918 27.9059 11.1956 27.4877 11.3005 27.2915V27.2901Z" fill="#FCC39A"/>
</g>
<path id="Vector_83" fill-rule="evenodd" clip-rule="evenodd" d="M7.8647 25.56C8.03636 26.2725 10.4218 27.5095 11.34 27.7887C11.7378 27.707 12.077 27.267 11.78 27.0613C11.5117 26.7997 9.71202 25.1649 8.86329 24.5232C8.18349 24.2126 8.01184 24.9469 7.86334 25.5586L7.8647 25.56Z" fill="#FF0000"/>
<g id="Group_12">
<path id="Vector_84" fill-rule="evenodd" clip-rule="evenodd" d="M33.0378 15.4611C32.9302 15.4529 32.7722 15.5333 32.6468 15.6668C32.5215 15.8003 32.403 15.9692 32.3567 16.0292C32.2354 16.1831 32.2763 16.1886 32.155 16.3425C32.2381 16.4161 32.3744 16.4842 32.5651 16.194C32.6305 16.1559 32.6809 16.1831 32.8008 15.9515C33.3089 15.9679 33.2463 15.472 33.0365 15.4624L33.0378 15.4611Z" fill="#FCC39A"/>
<path id="Vector_85" fill-rule="evenodd" clip-rule="evenodd" d="M33.3634 15.397C33.2354 15.4978 32.986 15.3712 32.8866 15.57C32.7831 16.115 32.516 16.2403 32.4861 16.5428C32.4534 16.5632 32.3648 16.6177 32.3485 16.6286C32.5419 16.8765 33.0419 16.8997 33.4956 16.5836C33.6945 16.3534 33.7299 15.9488 33.7149 15.818C33.6972 15.6709 33.5773 15.4624 33.3634 15.3984V15.397Z" fill="#FCC39A"/>
</g>
<path id="Vector_86" fill-rule="evenodd" clip-rule="evenodd" d="M36.8374 11.9081C36.5731 12.9666 34.6604 15.2308 33.6659 15.9147C33.4356 16.0727 32.8035 15.5946 33.1659 15.2036C33.7885 14.4161 34.8225 12.3917 35.2121 11.6833C35.4546 11.2419 37.0662 10.994 36.8374 11.9067V11.9081Z" fill="#FF0000"/>
</g>
</g>
<defs>
<clipPath id="clip0_856_10919">
<rect width="40.4053" height="45.92" fill="white"/>
</clipPath>
</defs>
</svg>
