<svg width="140" height="45" viewBox="0 0 140 45" fill="none" xmlns="http://www.w3.org/2000/svg">
<path d="M69.8042 27H68.4392L62.9492 18.675V27H61.5842V16.53H62.9492L68.4392 24.84V16.53H69.8042V27ZM75.7161 27.135C74.9461 27.135 74.2461 26.96 73.6161 26.61C72.9961 26.26 72.5061 25.765 72.1461 25.125C71.7961 24.475 71.6211 23.725 71.6211 22.875C71.6211 22.035 71.8011 21.295 72.1611 20.655C72.5311 20.005 73.0311 19.51 73.6611 19.17C74.2911 18.82 74.9961 18.645 75.7761 18.645C76.5561 18.645 77.2611 18.82 77.8911 19.17C78.5211 19.51 79.0161 20 79.3761 20.64C79.7461 21.28 79.9311 22.025 79.9311 22.875C79.9311 23.725 79.7411 24.475 79.3611 25.125C78.9911 25.765 78.4861 26.26 77.8461 26.61C77.2061 26.96 76.4961 27.135 75.7161 27.135ZM75.7161 25.935C76.2061 25.935 76.6661 25.82 77.0961 25.59C77.5261 25.36 77.8711 25.015 78.1311 24.555C78.4011 24.095 78.5361 23.535 78.5361 22.875C78.5361 22.215 78.4061 21.655 78.1461 21.195C77.8861 20.735 77.5461 20.395 77.1261 20.175C76.7061 19.945 76.2511 19.83 75.7611 19.83C75.2611 19.83 74.8011 19.945 74.3811 20.175C73.9711 20.395 73.6411 20.735 73.3911 21.195C73.1411 21.655 73.0161 22.215 73.0161 22.875C73.0161 23.545 73.1361 24.11 73.3761 24.57C73.6261 25.03 73.9561 25.375 74.3661 25.605C74.7761 25.825 75.2261 25.935 75.7161 25.935Z" fill="#1B293D"/>
<rect x="0.5" y="0.5" width="139" height="44" rx="9.5" stroke="#B30205"/>
</svg>
