<svg width="90" height="85" viewBox="0 0 90 85" fill="none" xmlns="http://www.w3.org/2000/svg">
<g id="OBJECTS" clip-path="url(#clip0_369_308)">
<path id="Vector" d="M45.15 12.9C18.03 10.56 -5.94004 44.13 18.38 66.22C42.7 88.31 71.03 68.45 75.49 52.17C79.95 35.89 68.46 14.91 45.15 12.91V12.9Z" fill="#DBDBDB"/>
<path id="Vector_2" d="M64.3601 11.25C62.4101 9.79999 60.6201 8.26999 58.4601 7.12999C56.6301 6.15999 54.7301 5.33999 52.7501 4.71999C49.0201 3.53999 45.0701 3.07999 41.1601 3.27999C33.9501 3.64999 26.9701 6.25999 20.8601 10.04C16.0201 13.03 11.4501 16.79 7.95007 21.3C3.18007 27.47 0.540066 35.61 0.0700656 43.35C-0.439934 51.66 1.85007 59.98 6.74007 66.74C11.3101 73.07 17.7001 77.97 24.8501 81.07C39.6601 87.49 57.8401 85.98 70.9001 76.22C77.4001 71.37 82.2301 64.71 84.4601 56.88C86.6901 49.05 86.4001 40.77 83.1601 33.46C82.3701 31.67 81.3801 29.99 80.2201 28.41C79.1901 27.02 76.8501 28.3 77.8501 29.8C86.3101 42.51 83.6601 60.03 72.9501 70.58C62.0801 81.29 45.1301 84.54 30.7301 80.22C16.5801 75.97 4.21007 64.34 2.74007 49.1C1.93007 40.71 4.11007 32.18 8.47007 25.01C10.9801 20.87 14.7401 17.42 18.6001 14.57C23.8401 10.69 29.8101 7.70999 36.2201 6.34999C43.6101 4.78999 51.3101 5.69999 58.1301 8.95999C60.1201 9.90999 62.0901 10.79 63.8801 12.09C64.4001 12.46 64.8801 11.61 64.3801 11.24L64.3601 11.25Z" fill="#B30205"/>
<path id="Vector_3" d="M18.0399 35.82C17.1799 40.37 21.8299 44.88 24.3599 48.3C28.2699 53.58 32.2899 58.8 36.2699 64.03C37.7199 65.93 41.0699 67.29 42.9399 64.89C49.4899 56.53 55.4999 47.76 61.8799 39.27C70.5799 27.7 80.6999 17.09 89.0799 5.33C91.1499 2.42 87.1099 -1.37 84.2399 0.49C78.6399 4.11 74.3999 9.39 70.1899 14.49C65.1099 20.64 60.2199 26.96 55.4099 33.32C48.8499 42 42.4499 50.78 36.2699 59.74C38.4899 59.45 40.7199 59.17 42.9399 58.88C38.5199 53.99 34.1099 49.07 29.6299 44.23C26.7799 41.16 22.9699 35.53 18.3799 35.56C18.2399 35.56 18.0699 35.67 18.0399 35.82Z" fill="#B30205"/>
</g>
<defs>
<clipPath id="clip0_369_308">
<rect width="89.65" height="84.95" fill="white"/>
</clipPath>
</defs>
</svg>
