<svg width="178" height="50" viewBox="0 0 178 50" fill="none" xmlns="http://www.w3.org/2000/svg">
<path d="M0 10C0 4.47715 4.47715 0 10 0H168C173.523 0 178 4.47715 178 10V40C178 45.5228 173.523 50 168 50H10C4.47715 50 0 45.5228 0 40V10Z" fill="#B30205"/>
<path d="M75.3447 30.105C74.3747 30.105 73.4897 29.88 72.6897 29.43C71.8897 28.97 71.2547 28.335 70.7847 27.525C70.3247 26.705 70.0947 25.785 70.0947 24.765C70.0947 23.745 70.3247 22.83 70.7847 22.02C71.2547 21.2 71.8897 20.565 72.6897 20.115C73.4897 19.655 74.3747 19.425 75.3447 19.425C76.3247 19.425 77.2147 19.655 78.0147 20.115C78.8147 20.565 79.4447 21.195 79.9047 22.005C80.3647 22.815 80.5947 23.735 80.5947 24.765C80.5947 25.795 80.3647 26.715 79.9047 27.525C79.4447 28.335 78.8147 28.97 78.0147 29.43C77.2147 29.88 76.3247 30.105 75.3447 30.105ZM75.3447 28.92C76.0747 28.92 76.7297 28.75 77.3097 28.41C77.8997 28.07 78.3597 27.585 78.6897 26.955C79.0297 26.325 79.1997 25.595 79.1997 24.765C79.1997 23.925 79.0297 23.195 78.6897 22.575C78.3597 21.945 77.9047 21.46 77.3247 21.12C76.7447 20.78 76.0847 20.61 75.3447 20.61C74.6047 20.61 73.9447 20.78 73.3647 21.12C72.7847 21.46 72.3247 21.945 71.9847 22.575C71.6547 23.195 71.4897 23.925 71.4897 24.765C71.4897 25.595 71.6547 26.325 71.9847 26.955C72.3247 27.585 72.7847 28.07 73.3647 28.41C73.9547 28.75 74.6147 28.92 75.3447 28.92ZM86.9867 30L83.7617 26.37V30H82.3967V18.9H83.7617V25.425L86.9267 21.78H88.8317L84.9617 25.875L88.8467 30H86.9867ZM89.6064 25.86C89.6064 25.02 89.7764 24.285 90.1164 23.655C90.4564 23.015 90.9214 22.52 91.5114 22.17C92.1114 21.82 92.7764 21.645 93.5064 21.645C94.2264 21.645 94.8514 21.8 95.3814 22.11C95.9114 22.42 96.3064 22.81 96.5664 23.28V21.78H97.9464V30H96.5664V28.47C96.2964 28.95 95.8914 29.35 95.3514 29.67C94.8214 29.98 94.2014 30.135 93.4914 30.135C92.7614 30.135 92.1014 29.955 91.5114 29.595C90.9214 29.235 90.4564 28.73 90.1164 28.08C89.7764 27.43 89.6064 26.69 89.6064 25.86ZM96.5664 25.875C96.5664 25.255 96.4414 24.715 96.1914 24.255C95.9414 23.795 95.6014 23.445 95.1714 23.205C94.7514 22.955 94.2864 22.83 93.7764 22.83C93.2664 22.83 92.8014 22.95 92.3814 23.19C91.9614 23.43 91.6264 23.78 91.3764 24.24C91.1264 24.7 91.0014 25.24 91.0014 25.86C91.0014 26.49 91.1264 27.04 91.3764 27.51C91.6264 27.97 91.9614 28.325 92.3814 28.575C92.8014 28.815 93.2664 28.935 93.7764 28.935C94.2864 28.935 94.7514 28.815 95.1714 28.575C95.6014 28.325 95.9414 27.97 96.1914 27.51C96.4414 27.04 96.5664 26.495 96.5664 25.875ZM107.333 21.78L102.383 33.87H100.973L102.593 29.91L99.2781 21.78H100.793L103.373 28.44L105.923 21.78H107.333Z" fill="white"/>
</svg>
